<?xml version="1.0" standalone="no"?>
<!DOCTYPE svg PUBLIC "-//W3C//DTD SVG 20010904//EN"
 "http://www.w3.org/TR/2001/REC-SVG-20010904/DTD/svg10.dtd">
<svg version="1.0" xmlns="http://www.w3.org/2000/svg"
 width="1434.000000pt" height="739.000000pt" viewBox="0 0 1434.000000 739.000000"
 preserveAspectRatio="xMidYMid meet">

<g transform="translate(0.000000,739.000000) scale(0.100000,-0.100000)"
fill="#000000" stroke="none">
<path d="M0 6960 l0 -430 7170 0 7170 0 0 430 0 430 -7170 0 -7170 0 0 -430z
m234 173 c11 -43 -11 -51 -28 -9 -19 45 -31 46 -47 1 -7 -19 -16 -35 -20 -35
-19 0 -18 24 3 61 23 40 23 41 3 55 -17 13 -18 16 -5 25 11 7 24 0 51 -31 20
-22 40 -52 43 -67z m346 60 c0 -22 2 -24 15 -13 9 7 18 11 20 8 3 -3 -1 -11
-9 -17 -14 -11 -13 -16 1 -37 18 -27 7 -33 -13 -6 -13 16 -13 16 -14 0 0 -10
-4 -18 -10 -18 -6 0 -10 27 -10 61 0 37 4 58 10 54 6 -3 10 -18 10 -32z m-186
-6 c8 -13 8 -20 -3 -27 -12 -7 -13 -11 -1 -24 7 -9 10 -19 7 -22 -3 -3 -12 3
-19 15 -17 27 -36 27 -41 -1 -2 -13 -5 1 -6 30 -1 52 0 53 25 50 15 -2 32 -11
38 -21z m336 13 c0 -5 8 -11 18 -11 16 -1 16 -2 0 -6 -12 -3 -18 -14 -18 -33
0 -19 6 -30 18 -33 13 -4 12 -5 -4 -6 -12 0 -25 6 -28 15 -10 25 -7 84 4 84 6
0 10 -4 10 -10z m1748 -41 l27 -1 -25 -7 c-17 -5 -27 -16 -31 -36 l-7 -30 -1
33 c-1 28 -5 32 -28 33 l-28 2 28 4 c21 3 27 10 28 31 l2 27 4 -27 c3 -22 10
-28 31 -29z m-385 27 l22 19 -19 -22 c-19 -23 -19 -23 0 -45 l19 -23 -22 19
c-23 19 -23 19 -45 0 l-23 -19 19 23 c19 22 19 22 0 45 l-19 22 23 -19 c22
-19 22 -19 45 0z m-1625 -39 c3 -37 2 -38 -25 -35 -37 4 -39 39 -3 49 l25 6
-25 12 -25 11 25 -3 c21 -2 25 -8 28 -40z m62 30 c-14 -7 -25 -19 -25 -27 0
-8 11 -20 25 -27 22 -11 23 -13 5 -13 -12 0 -26 5 -33 12 -26 26 -6 68 33 68
18 0 17 -2 -5 -13z m158 1 c20 -20 14 -28 -19 -28 -33 0 -31 -16 5 -30 20 -9
20 -9 0 -9 -24 -1 -44 17 -44 39 0 18 19 40 35 40 6 0 16 -5 23 -12z m13219
-10 l23 -21 25 23 c14 13 27 21 30 18 3 -2 -9 -17 -25 -33 l-30 -29 -33 32
c-35 36 -27 45 10 10z m-13647 -365 c29 -17 31 -21 26 -58 -4 -37 -42 -85 -66
-85 -24 0 -62 48 -66 85 -5 36 -3 42 23 57 37 21 45 21 83 1z m268 5 c7 -7 12
-21 12 -33 0 -12 5 -26 11 -32 6 -6 9 -26 7 -44 l-3 -34 -55 0 -55 0 -3 34
c-2 18 1 38 7 44 6 6 11 20 11 32 0 25 18 45 40 45 9 0 21 -5 28 -12z m924
-51 c21 18 21 18 7 -4 -11 -19 -11 -25 5 -42 11 -12 14 -21 9 -21 -6 0 -13 7
-17 15 -7 20 -24 19 -29 -2 -3 -10 -4 11 -4 47 0 38 2 49 4 27 4 -39 5 -39 25
-20z m240 -19 c2 -25 0 -44 -4 -41 -5 2 -7 30 -7 61 1 62 6 53 11 -20z m12443
52 c4 -13 15 -20 30 -20 33 0 38 -14 15 -35 -14 -12 -18 -25 -14 -41 7 -26
-13 -33 -34 -12 -9 9 -15 9 -24 0 -21 -21 -41 -14 -34 12 4 16 0 29 -14 41
-23 21 -18 35 15 35 15 0 26 7 30 20 3 11 10 20 15 20 5 0 12 -9 15 -20z
m-12525 -23 c12 -4 11 -6 -2 -6 -23 -1 -25 -57 -3 -64 11 -4 10 -4 -2 -3 -14
1 -19 12 -21 51 -1 28 1 45 5 39 5 -6 15 -14 23 -17z m-797 -4 c-7 -2 -19 -2
-25 0 -7 3 -2 5 12 5 14 0 19 -2 13 -5z m60 0 c-7 -2 -19 -2 -25 0 -7 3 -2 5
12 5 14 0 19 -2 13 -5z m365 0 c-11 -3 -18 -17 -21 -41 l-4 -37 -1 43 c-2 38
0 42 21 41 16 -1 17 -3 5 -6z m80 -36 c3 -37 2 -38 -25 -35 -36 4 -40 41 -5
46 12 2 22 7 22 12 0 5 -10 11 -22 13 -20 5 -20 5 2 4 21 -2 25 -7 28 -40z
m65 33 c-14 -6 -23 -18 -23 -30 0 -12 9 -24 23 -30 l22 -9 -22 0 c-29 -1 -48
32 -33 59 6 11 20 20 33 19 l22 0 -22 -9z m165 -2 c20 -20 14 -28 -19 -28 -36
0 -35 -21 2 -31 21 -6 21 -7 4 -8 -25 -1 -45 17 -45 39 0 18 19 40 35 40 6 0
16 -5 23 -12z m222 -2 c19 -24 8 -61 -19 -64 -13 -2 -27 2 -32 9 -9 15 7 39
27 39 20 0 17 18 -3 23 -15 4 -15 5 -2 6 9 0 22 -6 29 -13z m87 -31 l1 -40 -6
35 c-10 51 -39 53 -45 3 l-4 -38 -1 43 c-2 42 -1 43 26 40 24 -3 27 -7 29 -43z
m91 -7 c-3 -51 -4 -53 -33 -55 -18 -1 -22 1 -10 4 31 8 42 23 17 23 -12 0 -26
9 -32 20 -15 28 4 60 36 60 24 0 25 -2 22 -52z m116 46 c24 -9 21 -61 -4 -69
-39 -12 -66 35 -38 63 14 14 20 14 42 6z m74 -1 c-13 -3 -18 -15 -18 -39 0
-19 -4 -34 -10 -34 -11 0 -14 63 -3 73 3 4 16 6 27 6 17 -1 18 -2 4 -6z m90
-36 c4 -44 -11 -68 -42 -66 -20 2 -20 2 2 6 12 2 22 8 22 13 0 5 -10 10 -22
12 -15 2 -24 11 -26 26 -5 30 16 54 42 50 16 -2 22 -11 24 -41z m-571 7 c-3
-3 -12 -4 -19 -1 -8 3 -5 6 6 6 11 1 17 -2 13 -5z m333 -34 c0 -5 -5 -10 -11
-10 -5 0 -7 5 -4 10 3 6 8 10 11 10 2 0 4 -4 4 -10z"/>
<path d="M340 7181 c0 -15 6 -21 21 -21 25 0 22 33 -4 38 -12 2 -17 -3 -17
-17z"/>
<path d="M430 7135 c0 -8 7 -15 15 -15 8 0 15 7 15 15 0 8 -7 15 -15 15 -8 0
-15 -7 -15 -15z"/>
<path d="M650 7170 c0 -5 7 -10 15 -10 8 0 15 5 15 10 0 6 -7 10 -15 10 -8 0
-15 -4 -15 -10z"/>
<path d="M187 6792 c-23 -14 -26 -22 -21 -47 3 -16 16 -40 28 -53 l23 -24 26
24 c14 13 28 37 32 54 6 29 -6 42 -55 60 -3 1 -17 -5 -33 -14z"/>
<path d="M482 6798 c-7 -7 -12 -20 -12 -30 0 -13 8 -18 30 -18 22 0 30 5 30
18 0 17 -18 42 -30 42 -3 0 -11 -5 -18 -12z"/>
<path d="M454 6726 c-14 -36 0 -51 46 -51 43 0 45 1 45 30 0 28 -3 30 -43 33
-30 2 -44 -1 -48 -12z"/>
<path d="M1280 6715 c0 -8 7 -15 15 -15 8 0 15 7 15 15 0 8 -7 15 -15 15 -8 0
-15 -7 -15 -15z"/>
<path d="M1505 6750 c-3 -5 3 -10 14 -10 12 0 21 5 21 10 0 6 -6 10 -14 10 -8
0 -18 -4 -21 -10z"/>
<path d="M1730 6715 c0 -8 7 -15 15 -15 8 0 15 7 15 15 0 8 -7 15 -15 15 -8 0
-15 -7 -15 -15z"/>
<path d="M1904 6745 c-9 -21 3 -45 21 -45 10 0 15 10 15 30 0 32 -26 43 -36
15z"/>
<path d="M2024 6746 c-9 -24 4 -48 23 -44 12 2 18 12 18 28 0 29 -32 41 -41
16z"/>
<path d="M2174 6745 c-9 -21 3 -45 21 -45 10 0 15 10 15 30 0 32 -26 43 -36
15z"/>
<path d="M2800 6230 c51 -51 81 -93 114 -161 l46 -91 16 38 c24 57 15 151 -18
202 -35 52 -97 82 -171 82 l-56 0 69 -70z"/>
<path d="M2620 6214 c-43 -68 -44 -160 -4 -222 16 -24 16 -23 43 35 16 32 44
79 64 105 l35 46 -21 19 c-33 29 -70 53 -83 53 -7 0 -22 -16 -34 -36z"/>
<path d="M3740 6100 c0 -93 4 -150 10 -150 6 0 10 12 10 28 1 24 35 81 44 71
2 -2 13 -23 25 -46 21 -41 38 -60 47 -50 3 3 -8 31 -24 64 l-30 58 31 35 c21
23 26 35 17 38 -7 3 -34 -20 -61 -49 l-48 -54 -1 103 c0 61 -4 102 -10 102 -6
0 -10 -57 -10 -150z"/>
<path d="M3150 6095 c0 -85 4 -145 10 -145 5 0 10 26 12 58 3 56 4 57 34 60
30 3 32 0 54 -57 14 -37 28 -61 37 -61 10 0 13 6 8 18 -39 97 -39 98 -17 120
16 16 22 34 22 66 0 61 -31 86 -106 86 l-54 0 0 -145z m111 107 c28 -24 31
-79 4 -98 -10 -8 -36 -14 -57 -14 l-38 0 0 58 c0 32 3 62 7 65 13 13 61 7 84
-11z"/>
<path d="M4126 6203 c-3 -3 -6 -17 -6 -30 0 -14 -6 -23 -15 -23 -8 0 -15 -4
-15 -10 0 -5 7 -10 15 -10 12 0 15 -14 15 -68 0 -77 17 -112 55 -112 36 0 39
17 5 24 l-30 6 0 75 0 75 30 0 c17 0 30 5 30 10 0 6 -13 10 -30 10 -25 0 -30
4 -30 24 0 26 -12 40 -24 29z"/>
<path d="M8393 6183 c108 -2 286 -2 395 0 108 1 19 2 -198 2 -217 0 -306 -1
-197 -2z"/>
<path d="M9288 6183 c79 -2 205 -2 280 0 75 1 11 3 -143 3 -154 0 -216 -2
-137 -3z"/>
<path d="M10133 6183 c142 -2 372 -2 510 0 139 1 23 2 -258 2 -280 0 -394 -1
-252 -2z"/>
<path d="M11036 6174 c-13 -12 -16 -40 -16 -134 0 -94 3 -122 16 -134 14 -14
76 -16 534 -16 458 0 520 2 534 16 13 12 16 40 16 134 0 94 -3 122 -16 134
-14 14 -76 16 -534 16 -458 0 -520 -2 -534 -16z m158 -80 c9 -8 16 -31 16 -49
0 -41 -22 -65 -61 -65 l-29 0 0 65 0 65 29 0 c16 0 37 -7 45 -16z m117 0 c7
-9 13 -31 13 -49 0 -41 -19 -65 -50 -65 -26 0 -44 26 -44 65 0 58 49 88 81 49z
m57 -16 c10 -33 10 -33 11 -5 1 16 7 27 15 27 8 0 16 -12 19 -27 l4 -28 8 33
c12 50 27 38 20 -15 -10 -69 -15 -83 -31 -83 -9 0 -14 12 -15 33 l-1 32 -7
-30 c-8 -41 -41 -47 -41 -8 0 15 -3 45 -6 66 -8 46 9 50 24 5z m145 -10 l15
-43 1 43 c2 69 21 48 21 -23 0 -76 -18 -88 -43 -27 l-15 37 -1 -37 c-2 -66
-21 -41 -21 27 0 78 20 89 43 23z m107 -13 c0 -52 1 -55 25 -55 14 0 25 -4 25
-10 0 -5 -18 -10 -40 -10 l-40 0 0 65 c0 51 3 65 15 65 12 0 15 -13 15 -55z
m158 43 c7 -7 12 -30 12 -53 0 -46 -13 -65 -45 -65 -32 0 -45 19 -45 65 0 46
13 65 45 65 12 0 26 -5 33 -12z m115 -51 c18 -56 16 -90 -4 -54 -6 9 -19 17
-29 17 -10 0 -23 -8 -29 -17 -19 -35 -22 -4 -4 56 23 77 40 76 66 -2z m118 47
c7 -9 13 -31 13 -49 0 -44 -19 -65 -60 -65 l-34 0 0 65 0 65 34 0 c18 0 39 -7
47 -16z"/>
<path d="M11140 6045 c0 -38 3 -45 19 -45 23 0 35 31 27 66 -4 15 -14 24 -26
24 -17 0 -20 -7 -20 -45z"/>
<path d="M11254 6066 c-8 -34 4 -68 24 -64 24 5 24 81 0 86 -12 2 -19 -5 -24
-22z"/>
<path d="M11724 6077 c-3 -9 -4 -28 -2 -44 2 -20 8 -28 23 -28 17 0 20 7 20
40 0 30 -4 41 -18 43 -9 2 -20 -3 -23 -11z"/>
<path d="M11850 6050 c0 -11 5 -20 10 -20 6 0 10 9 10 20 0 11 -4 20 -10 20
-5 0 -10 -9 -10 -20z"/>
<path d="M11960 6045 c0 -39 3 -46 18 -43 13 2 17 13 17 43 0 30 -4 41 -17 43
-15 3 -18 -4 -18 -43z"/>
<path d="M3382 6134 c-12 -8 -22 -24 -22 -35 0 -25 17 -25 25 1 13 42 85 33
85 -10 0 -13 -11 -19 -45 -24 -51 -8 -75 -27 -75 -61 0 -47 53 -70 103 -44 16
9 22 9 25 0 2 -6 8 -11 14 -11 6 0 9 32 7 86 -3 71 -7 88 -23 100 -26 18 -66
18 -94 -2z m88 -114 c0 -24 -6 -33 -26 -41 -37 -14 -64 -3 -64 26 0 28 23 44
63 45 24 0 27 -4 27 -30z"/>
<path d="M3565 6125 c-20 -19 -25 -34 -25 -75 0 -60 31 -100 77 -100 36 0 73
25 73 51 0 25 -17 25 -25 0 -8 -28 -41 -36 -69 -17 -41 26 -42 105 -2 131 27
18 63 9 71 -16 8 -25 25 -24 25 0 0 49 -85 67 -125 26z"/>
<path d="M3933 6126 c-24 -21 -28 -32 -28 -76 0 -44 4 -55 28 -76 37 -32 81
-31 113 1 14 14 22 30 19 36 -4 6 -16 0 -30 -16 -29 -30 -58 -32 -85 -5 -38
38 -27 50 50 50 76 0 79 2 59 59 -19 55 -78 68 -126 27z m89 -13 c10 -9 18
-24 18 -35 0 -15 -8 -18 -55 -18 -61 0 -71 14 -35 50 24 24 47 25 72 3z"/>
<path d="M8164 6040 c0 -63 1 -89 3 -57 2 31 2 83 0 115 -2 31 -3 5 -3 -58z"/>
<path d="M9014 6040 c0 -63 1 -89 3 -57 2 31 2 83 0 115 -2 31 -3 5 -3 -58z"/>
<path d="M9114 6040 c0 -63 1 -89 3 -57 2 31 2 83 0 115 -2 31 -3 5 -3 -58z"/>
<path d="M9734 6040 c0 -63 1 -89 3 -57 2 31 2 83 0 115 -2 31 -3 5 -3 -58z"/>
<path d="M9844 6040 c0 -63 1 -89 3 -57 2 31 2 83 0 115 -2 31 -3 5 -3 -58z"/>
<path d="M10924 6040 c0 -63 1 -89 3 -57 2 31 2 83 0 115 -2 31 -3 5 -3 -58z"/>
<path d="M2770 6090 c-28 -39 -70 -136 -70 -160 0 -24 35 -35 101 -33 62 1 89
16 82 45 -8 36 -75 178 -84 178 -4 0 -17 -13 -29 -30z"/>
<path d="M8260 6045 c0 -61 1 -65 23 -64 16 1 18 2 5 6 -14 4 -18 15 -18 58 0
43 4 54 18 58 13 4 11 5 -5 6 -22 1 -23 -3 -23 -64z"/>
<path d="M8387 6092 c-32 -35 -13 -112 26 -112 6 0 1 7 -11 16 -15 10 -22 25
-22 49 0 24 7 39 22 49 12 9 18 16 12 16 -6 0 -18 -8 -27 -18z"/>
<path d="M8492 6043 l1 -68 6 60 c5 48 8 55 14 37 5 -13 11 -21 13 -19 7 7
-18 57 -28 57 -4 0 -7 -30 -6 -67z"/>
<path d="M8636 6103 c-9 -10 -7 -25 3 -19 5 4 12 0 14 -6 4 -8 6 -7 6 4 1 19
-13 31 -23 21z"/>
<path d="M8737 6103 c19 -4 23 -12 26 -66 l3 -62 2 62 c2 49 5 62 20 66 9 3
-3 5 -28 4 -25 0 -35 -2 -23 -4z"/>
<path d="M8850 6045 l0 -65 33 1 c30 2 30 2 5 6 -36 6 -40 49 -5 56 l22 4 -22
2 c-17 1 -23 7 -23 25 0 19 6 26 28 29 25 4 25 4 -5 6 l-33 1 0 -65z"/>
<path d="M9210 6045 c0 -61 1 -65 23 -64 16 1 18 2 5 6 -14 4 -18 15 -18 58 0
43 4 54 18 58 13 4 11 5 -5 6 -22 1 -23 -3 -23 -64z"/>
<path d="M9361 6107 c2 -1 13 -9 24 -17 19 -14 19 -14 6 3 -7 9 -18 17 -24 17
-6 0 -8 -1 -6 -3z"/>
<path d="M9466 6094 c-9 -8 -16 -23 -15 -32 0 -12 3 -10 9 6 5 12 20 27 32 32
16 6 18 9 6 9 -9 1 -24 -6 -32 -15z"/>
<path d="M9941 6043 c1 -38 4 -56 6 -41 3 18 12 28 26 31 l22 4 -22 2 c-19 1
-23 7 -23 32 0 26 3 30 22 27 16 -2 25 -12 29 -33 l7 -30 1 31 c1 33 -12 44
-50 44 -17 0 -19 -7 -18 -67z"/>
<path d="M10080 6100 c0 -5 5 -10 10 -10 6 0 10 5 10 10 0 6 -4 10 -10 10 -5
0 -10 -4 -10 -10z"/>
<path d="M10186 6094 c-9 -8 -16 -23 -15 -32 0 -12 3 -10 9 6 5 12 20 27 32
32 16 6 18 9 6 9 -9 1 -24 -6 -32 -15z"/>
<path d="M10293 6045 c0 -38 2 -53 4 -32 2 20 2 52 0 70 -2 17 -4 1 -4 -38z"/>
<path d="M10332 6080 l-22 -30 22 -35 c13 -19 27 -35 31 -35 4 0 -4 16 -19 35
-24 32 -25 37 -12 53 18 20 31 42 25 42 -2 0 -13 -13 -25 -30z"/>
<path d="M10430 6100 c0 -5 5 -10 10 -10 6 0 10 5 10 10 0 6 -4 10 -10 10 -5
0 -10 -4 -10 -10z"/>
<path d="M10640 6045 l0 -65 38 2 c36 1 36 1 5 5 -27 4 -33 9 -33 28 0 18 6
25 28 28 l27 4 -27 2 c-23 1 -28 6 -28 25 0 20 6 25 33 29 31 4 31 4 -5 5
l-38 2 0 -65z"/>
<path d="M10762 6098 c-21 -21 -13 -39 24 -54 39 -16 40 -33 3 -51 -17 -9 -19
-13 -7 -13 21 0 50 28 45 44 -2 6 -18 17 -35 25 -37 17 -41 38 -9 51 13 5 16
9 7 9 -9 1 -21 -4 -28 -11z"/>
<path d="M8316 6087 c3 -10 9 -15 12 -12 3 3 0 11 -7 18 -10 9 -11 8 -5 -6z"/>
<path d="M8435 6045 c0 -29 3 -51 8 -48 4 2 7 24 7 48 0 24 -3 46 -7 48 -5 3
-8 -19 -8 -48z"/>
<path d="M9268 6088 c16 -16 15 -70 0 -88 -11 -12 -10 -12 5 -1 25 20 21 101
-6 101 -7 0 -7 -4 1 -12z"/>
<path d="M9333 6085 c-3 -9 -3 -18 -1 -21 3 -3 8 4 11 16 6 23 -1 27 -10 5z"/>
<path d="M9564 6089 c-3 -6 2 -18 12 -27 17 -16 17 -16 5 0 -7 9 -10 22 -6 28
3 5 4 10 1 10 -3 0 -8 -5 -12 -11z"/>
<path d="M10520 6081 c-5 -11 -10 -28 -10 -38 0 -27 28 -63 48 -62 13 0 11 3
-5 9 -27 11 -39 53 -24 86 13 29 6 32 -9 5z"/>
<path d="M9402 6045 c0 -16 2 -22 5 -12 2 9 2 23 0 30 -3 6 -5 -1 -5 -18z"/>
<path d="M8331 6044 c0 -11 3 -14 6 -6 3 7 2 16 -1 19 -3 4 -6 -2 -5 -13z"/>
<path d="M9614 6038 c13 -10 17 -21 12 -34 -6 -15 -5 -17 6 -6 14 14 2 43 -23
50 -8 2 -5 -2 5 -10z"/>
<path d="M10053 6016 c-6 -20 -7 -34 -2 -30 5 3 9 12 9 20 0 22 60 19 61 -3 0
-10 3 -13 5 -7 3 6 0 22 -5 35 -5 13 -10 18 -10 12 -1 -16 -38 -17 -43 -2 -2
6 -9 -5 -15 -25z"/>
<path d="M10403 6016 c-6 -20 -7 -34 -2 -30 5 3 9 12 9 20 0 22 60 19 61 -3 0
-10 3 -13 5 -7 3 6 0 22 -5 35 -5 13 -10 18 -10 12 -1 -16 -38 -17 -43 -2 -2
6 -9 -5 -15 -25z"/>
<path d="M10560 6046 c0 -2 7 -6 15 -10 8 -3 15 -1 15 4 0 6 -7 10 -15 10 -8
0 -15 -2 -15 -4z"/>
<path d="M9451 6028 c-1 -9 6 -24 15 -32 8 -9 23 -16 32 -15 12 0 10 3 -6 9
-12 5 -27 20 -32 32 -6 16 -9 18 -9 6z"/>
<path d="M10171 6028 c-1 -9 6 -24 15 -32 8 -9 23 -16 32 -15 12 0 10 3 -6 9
-12 5 -27 20 -32 32 -6 16 -9 18 -9 6z"/>
<path d="M8610 6023 c0 -5 16 -8 35 -8 19 0 35 3 35 8 0 4 -16 7 -35 7 -19 0
-35 -3 -35 -7z"/>
<path d="M9330 6016 c0 -8 4 -17 9 -20 5 -4 7 3 4 14 -6 23 -13 26 -13 6z"/>
<path d="M8316 6003 c-6 -14 -5 -15 5 -6 7 7 10 15 7 18 -3 3 -9 -2 -12 -12z"/>
<path d="M8540 6001 c0 -5 5 -13 10 -16 6 -3 10 -2 10 4 0 5 -4 13 -10 16 -5
3 -10 2 -10 -4z"/>
<path d="M9376 5995 c-11 -8 -15 -15 -9 -15 6 0 16 7 23 15 16 19 11 19 -14 0z"/>
<path d="M9570 5990 c8 -5 22 -9 30 -9 10 0 8 3 -5 9 -27 12 -43 12 -25 0z"/>
<path d="M8393 5893 c108 -2 286 -2 395 0 108 1 19 2 -198 2 -217 0 -306 -1
-197 -2z"/>
<path d="M9288 5893 c79 -2 205 -2 280 0 75 1 11 3 -143 3 -154 0 -216 -2
-137 -3z"/>
<path d="M10133 5893 c142 -2 372 -2 510 0 139 1 23 2 -258 2 -280 0 -394 -1
-252 -2z"/>
<path d="M4962 5753 c1314 -2 3462 -2 4775 0 1314 1 239 2 -2387 2 -2626 0
-3701 -1 -2388 -2z"/>
<path d="M3093 5465 c-1 -44 1 -73 4 -65 2 8 7 22 10 30 3 11 11 8 30 -15 l25
-30 -17 33 c-15 32 -15 35 1 53 9 10 12 19 6 19 -6 0 -16 -9 -22 -20 -17 -33
-29 -23 -33 28 -2 29 -4 17 -4 -33z"/>
<path d="M4953 5465 c0 -44 2 -61 4 -37 2 23 2 59 0 80 -2 20 -4 1 -4 -43z"/>
<path d="M5080 5465 c0 -43 3 -75 7 -71 8 7 6 136 -2 144 -3 3 -5 -30 -5 -73z"/>
<path d="M5183 5465 c0 -44 2 -61 4 -37 2 23 2 59 0 80 -2 20 -4 1 -4 -43z"/>
<path d="M10292 5465 c0 -54 2 -73 8 -59 13 34 26 36 39 7 6 -14 14 -23 17
-20 3 3 -1 18 -10 34 -13 27 -13 32 2 49 10 11 6 9 -9 -4 -14 -12 -28 -22 -32
-22 -3 0 -8 21 -10 48 -2 29 -4 17 -5 -33z"/>
<path d="M11610 5509 c0 -26 -3 -29 -20 -24 -28 9 -50 -11 -50 -45 0 -34 17
-49 52 -47 28 2 28 2 28 75 0 39 -2 72 -5 72 -3 0 -5 -14 -5 -31z m-12 -41
c28 -28 -3 -83 -33 -58 -8 7 -15 20 -15 29 0 17 18 41 30 41 3 0 11 -5 18 -12z"/>
<path d="M2780 5460 c0 -40 4 -70 10 -70 6 0 10 14 10 30 0 40 22 39 43 -2 8
-18 16 -26 16 -18 0 8 -3 21 -8 29 -6 9 -4 19 5 28 30 31 3 73 -47 73 l-29 0
0 -70z m54 54 c9 -3 16 -17 16 -30 0 -19 -5 -24 -25 -24 -21 0 -25 5 -25 30 0
31 6 35 34 24z"/>
<path d="M4046 5514 c-12 -11 -13 -20 -6 -33 6 -12 5 -22 -1 -28 -15 -15 -2
-51 21 -58 39 -12 83 40 50 60 -6 4 -5 13 3 26 10 17 9 22 -7 35 -25 18 -41
18 -60 -2z m53 -8 c14 -17 -11 -41 -34 -32 -18 7 -20 32 -2 39 20 9 24 8 36
-7z m8 -62 c8 -21 -19 -46 -40 -38 -9 3 -17 17 -17 30 0 19 5 24 25 24 14 0
28 -7 32 -16z"/>
<path d="M4210 5511 c-23 -20 -23 -21 -2 -11 21 10 22 9 22 -40 0 -43 -3 -52
-22 -60 -18 -7 -12 -9 27 -8 28 0 40 3 28 5 -20 4 -22 11 -25 70 l-3 65 -25
-21z"/>
<path d="M4318 5519 c-10 -5 -18 -15 -18 -21 0 -6 9 -3 20 7 22 19 50 14 50
-10 0 -9 -10 -20 -22 -25 -23 -9 -23 -9 -2 -9 29 -1 40 -32 18 -48 -24 -18
-30 -16 -48 9 -9 12 -16 17 -16 11 0 -16 28 -43 45 -43 31 0 58 51 35 65 -6 4
-5 13 3 26 10 17 9 22 -7 35 -23 16 -35 17 -58 3z"/>
<path d="M9980 5460 c0 -40 4 -70 10 -70 6 0 10 14 10 30 0 40 22 39 43 -2 8
-18 16 -26 16 -18 0 8 -3 21 -8 29 -6 9 -4 19 5 28 30 31 3 73 -47 73 l-29 0
0 -70z m54 54 c9 -3 16 -17 16 -30 0 -19 -5 -24 -25 -24 -21 0 -25 5 -25 30 0
31 6 35 34 24z"/>
<path d="M10578 5519 c-27 -15 -25 -104 2 -119 24 -13 56 -5 64 15 7 19 -1 19
-20 0 -26 -25 -54 -2 -54 45 0 52 29 71 60 38 11 -12 20 -17 20 -11 0 15 -28
43 -43 43 -7 0 -20 -5 -29 -11z"/>
<path d="M10932 5518 c-7 -7 -12 -16 -12 -21 0 -5 7 -1 16 8 19 18 33 16 48
-8 8 -13 3 -24 -27 -55 -20 -21 -37 -41 -37 -45 0 -4 19 -6 43 -6 42 2 42 2 8
8 l-35 6 32 36 c37 42 40 64 13 79 -25 13 -34 13 -49 -2z"/>
<path d="M11048 5519 c-13 -7 -18 -23 -18 -60 0 -43 3 -51 25 -61 37 -16 55 4
55 61 0 64 -21 84 -62 60z m36 -5 c23 -9 22 -99 0 -108 -9 -4 -23 -1 -30 5
-17 14 -18 81 -2 97 14 14 12 14 32 6z"/>
<path d="M11158 5519 c-10 -5 -18 -17 -18 -26 0 -11 4 -10 18 7 11 14 23 19
35 15 27 -11 20 -38 -18 -75 -19 -19 -35 -38 -35 -42 0 -4 19 -7 43 -7 29 2
34 3 15 6 -34 5 -35 13 -3 43 50 47 20 112 -37 79z"/>
<path d="M11268 5519 c-10 -5 -18 -15 -18 -21 0 -6 9 -3 20 7 22 19 50 14 50
-10 0 -9 -10 -20 -22 -25 -23 -9 -23 -9 -2 -9 29 -1 40 -32 18 -48 -24 -18
-30 -16 -48 9 -9 12 -16 17 -16 11 0 -16 28 -43 45 -43 31 0 58 51 35 65 -6 4
-5 13 3 26 10 17 9 22 -7 35 -23 16 -35 17 -58 3z"/>
<path d="M3291 5508 c0 -9 -7 -19 -13 -21 -10 -4 -10 -6 0 -6 7 -1 12 -16 12
-40 0 -26 5 -41 16 -45 24 -9 31 -7 12 5 -11 6 -18 22 -18 39 0 17 7 33 18 39
15 9 15 10 0 11 -9 0 -19 8 -21 18 -4 15 -5 15 -6 0z"/>
<path d="M10490 5505 c-7 -63 8 -115 32 -115 5 0 2 7 -6 16 -21 21 -20 61 2
73 15 9 15 10 0 11 -9 0 -19 8 -21 18 -4 15 -5 14 -7 -3z"/>
<path d="M2900 5475 c-8 -9 -8 -15 -2 -15 6 0 12 5 14 12 5 13 38 4 38 -11 0
-5 -8 -12 -17 -14 -17 -4 -17 -5 0 -6 21 -1 23 -27 1 -35 -21 -8 -37 2 -30 20
3 8 1 14 -5 14 -6 0 -9 -10 -7 -22 2 -18 10 -23 36 -23 31 -1 32 1 32 41 0 29
-5 44 -16 48 -23 9 -30 8 -44 -9z"/>
<path d="M3002 5478 c-17 -17 -15 -63 3 -78 16 -13 55 -5 55 12 0 7 -5 7 -14
-1 -21 -18 -46 -2 -46 29 0 31 25 47 46 29 9 -7 14 -8 14 -1 0 9 -22 22 -39
22 -4 0 -12 -5 -19 -12z"/>
<path d="M3192 5478 c-17 -17 -15 -63 3 -78 16 -13 55 -5 55 12 0 6 -6 6 -15
-2 -18 -15 -45 -6 -45 15 0 11 10 15 35 15 38 0 44 10 19 34 -19 19 -36 20
-52 4z m46 -15 c2 -8 -6 -13 -22 -13 -25 0 -33 10 -19 24 10 10 36 3 41 -11z"/>
<path d="M3394 5465 c11 -43 25 -75 34 -75 4 0 15 23 24 50 9 28 12 48 8 45
-5 -3 -11 -19 -15 -35 -10 -45 -23 -45 -35 0 -6 22 -13 40 -16 40 -4 0 -3 -11
0 -25z"/>
<path d="M3502 5478 c-17 -17 -15 -63 3 -78 16 -13 55 -5 55 12 0 6 -6 6 -15
-2 -18 -15 -45 -6 -45 15 0 11 10 15 35 15 38 0 44 10 19 34 -19 19 -36 20
-52 4z m46 -15 c2 -8 -6 -13 -22 -13 -25 0 -33 10 -19 24 10 10 36 3 41 -11z"/>
<path d="M3592 5435 c1 -44 2 -45 5 -12 2 21 11 41 19 44 21 8 17 19 -6 19
-18 0 -20 -6 -18 -51z"/>
<path d="M3660 5475 c-12 -15 -6 -35 12 -35 7 0 6 5 -2 15 -10 12 -9 16 4 21
9 3 23 1 31 -6 9 -7 15 -8 15 -2 0 9 -22 22 -40 22 -4 0 -13 -7 -20 -15z"/>
<path d="M3753 5440 c0 -30 2 -43 4 -27 2 15 2 39 0 55 -2 15 -4 2 -4 -28z"/>
<path d="M3808 5479 c-25 -14 -24 -65 2 -79 45 -24 82 37 44 74 -18 19 -23 19
-46 5z m40 -11 c28 -28 -3 -83 -33 -58 -8 7 -15 20 -15 29 0 17 18 41 30 41 3
0 11 -5 18 -12z"/>
<path d="M3943 5479 c11 -7 18 -24 19 -52 l1 -42 4 38 c4 38 -9 67 -31 67 -6
0 -3 -5 7 -11z"/>
<path d="M4453 5440 c0 -30 2 -43 4 -27 2 15 2 39 0 55 -2 15 -4 2 -4 -28z"/>
<path d="M4500 5475 c-13 -16 -6 -35 13 -34 9 0 9 2 0 6 -20 7 -15 23 10 33
15 6 17 9 6 9 -9 1 -22 -6 -29 -14z"/>
<path d="M4635 5480 c-4 -6 -4 -14 -1 -17 3 -4 6 -1 6 5 0 15 36 16 43 2 3 -6
4 -5 3 2 -3 17 -42 23 -51 8z"/>
<path d="M4722 5459 c6 -16 12 -28 14 -26 5 5 -13 57 -20 57 -3 0 0 -14 6 -31z"/>
<path d="M4830 5486 c0 -2 9 -6 20 -9 11 -3 18 -1 14 4 -5 9 -34 13 -34 5z"/>
<path d="M4913 5440 c0 -30 2 -43 4 -27 2 15 2 39 0 55 -2 15 -4 2 -4 -28z"/>
<path d="M4995 5480 c-4 -6 -4 -14 -1 -17 3 -4 6 -1 6 5 0 15 36 16 43 2 3 -6
4 -5 3 2 -3 17 -42 23 -51 8z"/>
<path d="M5232 5478 c-7 -7 -12 -24 -12 -38 0 -47 43 -67 71 -33 13 15 12 15
-7 3 -25 -15 -54 -7 -54 15 0 11 10 15 35 15 19 0 35 4 35 8 0 4 -16 6 -35 4
-40 -5 -48 13 -12 28 13 5 16 9 7 9 -9 1 -21 -4 -28 -11z"/>
<path d="M10113 5483 c-7 -2 -13 -9 -13 -15 0 -6 6 -6 15 2 14 12 35 6 35 -10
0 -5 -8 -11 -17 -13 -16 -4 -16 -5 1 -6 13 -1 17 -7 13 -20 -3 -11 0 -22 7
-24 15 -6 8 75 -8 85 -12 9 -16 9 -33 1z"/>
<path d="M10208 5479 c-25 -14 -24 -65 1 -79 21 -11 51 -4 51 12 0 6 -6 5 -15
-2 -18 -15 -45 2 -45 30 0 28 27 45 45 30 9 -7 15 -8 15 -2 0 5 -7 13 -16 16
-19 7 -15 8 -36 -5z"/>
<path d="M10398 5479 c-25 -14 -24 -65 1 -79 30 -15 38 -12 13 6 -32 22 -27
34 13 34 39 0 48 22 16 40 -23 12 -22 12 -43 -1z m42 -14 c11 -13 8 -15 -20
-15 -28 0 -31 2 -20 15 7 8 16 15 20 15 4 0 13 -7 20 -15z"/>
<path d="M10686 5474 c-9 -8 -16 -24 -16 -34 0 -21 25 -50 44 -50 20 0 36 22
36 50 0 46 -34 64 -64 34z m48 -17 c12 -18 0 -47 -22 -55 -19 -6 -34 35 -22
59 13 23 28 21 44 -4z"/>
<path d="M10780 5440 c0 -29 2 -51 4 -49 8 8 10 88 3 95 -4 4 -7 -17 -7 -46z"/>
<path d="M10823 5478 c9 -7 18 -31 20 -53 l4 -40 1 46 c2 35 -2 48 -14 53 -25
10 -29 7 -11 -6z"/>
<path d="M11404 5465 c11 -43 25 -75 34 -75 4 0 15 23 24 50 9 28 12 48 8 45
-5 -3 -11 -19 -15 -35 -10 -45 -23 -45 -35 0 -6 22 -13 40 -16 40 -4 0 -3 -11
0 -25z"/>
<path d="M11503 5440 c0 -30 2 -43 4 -27 2 15 2 39 0 55 -2 15 -4 2 -4 -28z"/>
<path d="M11662 5478 c-17 -17 -15 -63 3 -78 16 -13 55 -5 55 12 0 6 -6 6 -15
-2 -18 -15 -45 -6 -45 15 0 10 10 15 30 15 18 0 30 5 30 13 0 16 -20 37 -35
37 -6 0 -16 -5 -23 -12z m46 -15 c2 -8 -6 -13 -22 -13 -25 0 -33 10 -19 24 10
10 36 3 41 -11z"/>
<path d="M11762 5478 c-26 -26 -8 -88 24 -88 19 0 44 29 44 50 0 21 -25 50
-44 50 -6 0 -17 -5 -24 -12z m46 -32 c4 -34 -8 -49 -31 -40 -20 7 -23 60 -4
67 22 9 32 1 35 -27z"/>
<path d="M11861 5481 c-16 -10 -8 -41 11 -41 9 0 9 3 -2 10 -12 7 -12 12 -2
22 10 10 17 10 32 0 11 -7 20 -8 20 -3 0 8 -23 21 -38 21 -4 0 -13 -4 -21 -9z"/>
<path d="M3901 5433 c1 -53 6 -49 11 10 2 20 0 37 -4 37 -4 0 -8 -21 -7 -47z"/>
<path d="M5145 5440 c0 -34 1 -38 9 -21 5 13 5 29 0 42 -8 17 -9 13 -9 -21z"/>
<path d="M4855 5450 c-19 -8 -19 -9 -1 -9 13 -1 17 -6 13 -21 -3 -11 -1 -23 4
-26 5 -3 9 11 9 30 0 20 -1 36 -2 35 -2 0 -12 -4 -23 -9z"/>
<path d="M4668 5443 c7 -3 16 -2 19 1 4 3 -2 6 -13 5 -11 0 -14 -3 -6 -6z"/>
<path d="M5028 5443 c7 -3 16 -2 19 1 4 3 -2 6 -13 5 -11 0 -14 -3 -6 -6z"/>
<path d="M3706 5425 c8 -20 -22 -30 -44 -14 -16 12 -16 12 -1 -5 21 -23 59
-13 59 15 0 10 -4 19 -10 19 -5 0 -7 -7 -4 -15z"/>
<path d="M4547 5420 c3 -11 7 -20 9 -20 2 0 4 9 4 20 0 11 -4 20 -9 20 -5 0
-7 -9 -4 -20z"/>
<path d="M10093 5424 c-3 -9 0 -20 8 -25 22 -14 35 -10 14 4 -10 8 -15 19 -11
25 4 7 5 12 1 12 -3 0 -8 -7 -12 -16z"/>
<path d="M11906 5425 c8 -20 -22 -31 -41 -15 -9 7 -15 8 -15 2 0 -14 29 -24
51 -17 19 6 27 45 9 45 -5 0 -7 -7 -4 -15z"/>
<path d="M4760 5421 c0 -7 -4 -9 -10 -6 -5 3 -10 2 -10 -4 0 -5 4 -12 9 -15
10 -6 25 24 16 32 -3 3 -5 0 -5 -7z"/>
<path d="M4502 5404 c9 -9 21 -15 27 -13 6 2 -2 10 -17 17 -25 11 -25 11 -10
-4z"/>
<path d="M4632 5404 c9 -9 21 -15 27 -13 6 2 -2 10 -17 17 -25 11 -25 11 -10
-4z"/>
<path d="M4992 5404 c9 -9 21 -15 27 -13 6 2 -2 10 -17 17 -25 11 -25 11 -10
-4z"/>
<path d="M4818 5398 c5 -5 16 -8 23 -6 8 3 3 7 -10 11 -17 4 -21 3 -13 -5z"/>
<path d="M2580 4750 l0 -410 4770 0 4770 0 0 410 0 410 -4770 0 -4770 0 0
-410z m2534 117 c9 -7 20 -31 23 -54 4 -33 1 -45 -17 -63 l-22 -22 21 -49 c18
-46 19 -49 2 -49 -11 0 -23 16 -35 50 -15 41 -22 50 -42 50 -22 0 -24 -4 -24
-50 0 -38 -4 -50 -15 -50 -13 0 -15 21 -15 125 l0 125 53 0 c29 0 61 -6 71
-13z m406 -69 l0 -82 36 42 c19 23 42 42 50 42 21 0 17 -14 -11 -40 l-25 -23
30 -54 c27 -48 28 -53 12 -53 -12 0 -25 14 -37 40 -10 22 -20 40 -23 40 -11 0
-31 -37 -32 -57 0 -14 -6 -23 -15 -23 -13 0 -15 21 -15 125 0 104 2 125 15
125 12 0 15 -16 15 -82z m700 38 l0 -44 39 5 c32 4 41 2 55 -18 22 -32 23
-149 1 -149 -12 0 -15 14 -15 64 0 75 -15 96 -55 78 -23 -11 -25 -17 -25 -77
0 -51 -3 -65 -15 -65 -13 0 -15 21 -15 125 0 104 2 125 15 125 11 0 15 -12 15
-44z m505 24 c11 -12 19 -36 19 -55 0 -47 -28 -75 -76 -75 l-38 0 0 -50 c0
-38 -4 -50 -15 -50 -13 0 -15 21 -15 125 l0 125 53 0 c42 0 58 -5 72 -20z
m1745 -95 l0 -115 50 0 c28 0 50 -4 50 -10 0 -6 -28 -10 -65 -10 l-65 0 0 125
c0 104 2 125 15 125 12 0 15 -19 15 -115z m-470 80 c0 -8 -7 -15 -15 -15 -8 0
-15 7 -15 15 0 8 7 15 15 15 8 0 15 -7 15 -15z m-2142 -23 c2 -16 10 -22 28
-22 13 0 24 -4 24 -10 0 -5 -11 -10 -25 -10 -25 0 -26 -1 -23 -62 3 -57 5 -63
26 -66 28 -4 19 -22 -12 -22 -36 0 -46 19 -46 87 0 49 -3 63 -15 63 -8 0 -15
5 -15 10 0 6 7 10 15 10 9 0 15 10 15 26 0 31 23 28 28 -4z m252 3 c0 -20 5
-25 25 -25 14 0 25 -4 25 -10 0 -5 -11 -10 -25 -10 -25 0 -26 -1 -23 -62 3
-57 5 -63 26 -66 33 -5 27 -22 -8 -22 -38 0 -50 23 -50 94 0 43 -3 56 -15 56
-8 0 -15 5 -15 10 0 6 7 10 15 10 9 0 15 9 15 25 0 16 6 25 15 25 9 0 15 -9
15 -25z m-823 -55 c7 -14 13 -50 13 -81 l0 -55 -60 -2 c-55 -2 -62 0 -72 22
-19 43 1 65 75 81 24 5 26 8 17 25 -14 26 -50 26 -57 0 -7 -25 -33 -26 -33 -2
0 29 22 43 65 40 31 -2 42 -9 52 -28z m155 18 c20 -16 27 -49 11 -55 -6 -2
-14 5 -18 16 -13 41 -74 32 -76 -12 -4 -80 28 -111 70 -66 26 29 44 22 28 -11
-16 -32 -79 -40 -108 -14 -25 23 -27 109 -2 136 19 21 71 24 95 6z m320 -5 c9
-10 18 -30 20 -45 5 -28 5 -28 -53 -28 -50 0 -59 -3 -59 -18 0 -42 48 -56 77
-22 20 24 33 26 33 6 0 -45 -83 -63 -120 -26 -14 14 -20 33 -20 65 0 32 6 51
20 65 25 25 81 27 102 3z m718 -3 c11 -11 20 -31 20 -45 0 -24 -3 -25 -60 -25
-33 0 -60 -3 -60 -8 0 -4 7 -18 16 -30 19 -27 50 -28 66 -2 14 22 38 27 38 8
0 -25 -34 -48 -70 -48 -50 0 -75 29 -75 85 0 55 25 85 72 85 20 0 41 -8 53
-20z m360 10 c0 -4 -11 -15 -25 -24 -22 -15 -25 -24 -25 -76 0 -33 -4 -60 -10
-60 -6 0 -10 28 -10 63 0 34 -3 72 -6 83 -5 19 -1 21 35 21 23 0 41 -3 41 -7z
m144 -9 c12 -13 18 -36 18 -66 0 -58 -22 -85 -69 -85 -48 0 -73 29 -73 85 0
32 6 51 20 65 26 26 81 26 104 1z m186 -80 c0 -111 -11 -131 -71 -131 -30 0
-42 6 -55 25 -8 13 -13 29 -9 35 10 16 19 12 30 -12 17 -40 75 -31 75 11 0 13
-8 16 -39 13 -31 -3 -42 0 -55 19 -20 30 -21 88 0 117 13 19 23 22 70 20 l54
-2 0 -95z m110 88 c0 -5 -11 -14 -25 -19 -23 -9 -25 -14 -25 -75 0 -51 -3 -65
-15 -65 -12 0 -15 16 -15 84 l0 84 40 0 c22 0 40 -4 40 -9z m134 -11 c10 -14
16 -44 16 -83 l0 -61 -53 -2 c-59 -1 -71 4 -81 35 -9 27 23 63 57 63 12 0 28
4 36 9 12 8 12 12 2 25 -19 22 -52 20 -58 -4 -6 -23 -33 -27 -33 -6 0 46 86
64 114 24z m254 10 c7 -7 12 -37 12 -84 0 -59 -3 -74 -15 -74 -12 0 -15 14
-15 69 0 73 -7 86 -40 76 -17 -6 -20 -15 -20 -76 0 -55 -3 -69 -15 -69 -12 0
-15 14 -15 64 0 73 -14 95 -49 76 -18 -9 -21 -20 -21 -75 0 -51 -3 -65 -15
-65 -12 0 -15 16 -15 83 l0 83 98 1 c53 0 103 -4 110 -9z m158 1 c8 -7 14 -6
19 1 3 5 22 10 41 10 42 0 54 -24 54 -111 0 -46 -3 -59 -15 -59 -12 0 -15 14
-15 64 0 73 -14 95 -49 76 -18 -9 -21 -20 -21 -75 0 -50 -3 -65 -15 -65 -11 0
-15 17 -17 72 -2 58 -6 73 -19 76 -32 6 -49 -26 -49 -89 0 -33 -4 -59 -10 -59
-6 0 -10 28 -10 63 0 34 -3 71 -6 83 -5 19 -1 21 47 22 29 0 59 -4 65 -9z
m174 -74 c0 -69 -3 -85 -15 -85 -12 0 -15 16 -15 85 0 69 3 85 15 85 12 0 15
-16 15 -85z m155 69 c21 -22 22 -154 0 -154 -12 0 -15 14 -15 63 0 81 -26 110
-64 71 -11 -10 -16 -34 -16 -75 0 -33 -4 -59 -10 -59 -6 0 -10 28 -10 63 0 34
-3 71 -6 83 -5 19 -1 21 50 22 38 1 60 -3 71 -14z m183 -86 c-3 -84 -7 -102
-23 -114 -40 -29 -115 -9 -115 31 0 24 21 28 27 6 8 -30 52 -39 70 -16 22 31
16 41 -22 37 -51 -6 -75 18 -75 76 0 65 19 82 88 81 l54 -2 -4 -99z m369 72
c7 -14 13 -50 13 -81 l0 -55 -60 -2 c-55 -2 -62 0 -72 22 -19 43 1 65 75 81
24 5 26 8 17 25 -14 26 -50 26 -57 0 -7 -25 -33 -26 -33 -2 0 29 22 43 65 40
31 -2 42 -9 52 -28z m63 18 c0 -9 3 -9 12 0 16 16 70 16 86 0 7 -7 12 -42 12
-85 0 -58 -3 -73 -15 -73 -12 0 -15 14 -15 69 0 74 -12 91 -51 71 -16 -9 -19
-22 -19 -75 0 -51 -3 -65 -15 -65 -12 0 -15 16 -15 85 0 50 4 85 10 85 6 0 10
-5 10 -12z m280 -87 c0 -111 -11 -131 -71 -131 -30 0 -42 6 -55 25 -8 13 -13
29 -9 35 10 16 19 12 30 -12 17 -40 75 -31 75 11 0 13 -8 16 -39 13 -31 -3
-42 0 -55 19 -20 30 -21 88 0 117 13 19 23 22 70 20 l54 -2 0 -95z m60 36 c0
-81 26 -110 64 -71 11 10 16 34 16 75 0 33 4 59 10 59 6 0 10 -24 10 -54 0
-29 3 -67 6 -83 l6 -29 -56 -2 c-75 -2 -86 11 -86 99 0 55 3 69 15 69 12 0 15
-14 15 -63z m254 41 c10 -14 16 -44 16 -83 l0 -61 -53 -2 c-59 -1 -71 4 -81
35 -9 27 23 63 57 63 12 0 28 4 36 9 12 8 12 12 2 25 -19 22 -52 20 -58 -4 -6
-23 -33 -27 -33 -6 0 46 86 64 114 24z m184 -80 c-3 -84 -7 -102 -23 -114 -40
-29 -115 -9 -115 31 0 24 21 28 27 6 8 -30 52 -39 70 -16 22 31 16 41 -22 37
-51 -6 -75 18 -75 76 0 65 19 82 88 81 l54 -2 -4 -99z m156 80 c9 -12 16 -33
16 -45 0 -21 -4 -23 -55 -23 -47 0 -55 -3 -55 -19 0 -10 7 -24 15 -31 19 -15
65 -5 65 15 0 8 7 15 15 15 20 0 19 -19 -2 -42 -10 -11 -30 -18 -54 -18 -47 0
-69 27 -69 85 0 58 22 85 70 85 29 0 43 -6 54 -22z m-3734 -143 c0 -14 -8 -29
-20 -35 -21 -11 -29 3 -9 16 8 5 8 9 -1 14 -15 9 -4 30 16 30 8 0 14 -10 14
-25z"/>
<path d="M5020 4805 c0 -54 0 -55 29 -55 36 0 61 23 61 55 0 27 -34 55 -67 55
-21 0 -23 -4 -23 -55z"/>
<path d="M6630 4805 c0 -52 1 -55 25 -55 28 0 65 32 65 55 0 23 -37 55 -65 55
-24 0 -25 -3 -25 -55z"/>
<path d="M5200 4695 c-15 -18 -6 -45 15 -45 28 0 55 20 55 40 0 15 -7 20 -29
20 -16 0 -34 -7 -41 -15z"/>
<path d="M5682 4768 c-25 -25 -13 -38 34 -38 46 0 46 0 32 23 -18 26 -48 33
-66 15z"/>
<path d="M6396 4764 c-26 -25 -19 -34 29 -34 46 0 58 13 33 38 -17 17 -44 15
-62 -4z"/>
<path d="M6908 4769 c-13 -7 -18 -23 -18 -55 0 -38 4 -46 25 -56 34 -15 59 9
59 56 0 55 -28 78 -66 55z"/>
<path d="M7076 4764 c-9 -8 -16 -28 -16 -44 0 -16 7 -36 16 -44 18 -19 20 -19
45 -6 14 8 19 21 19 50 0 29 -5 42 -19 50 -25 13 -27 13 -45 -6z"/>
<path d="M7330 4694 c-11 -12 -10 -18 3 -31 13 -14 21 -14 42 -5 36 17 34 52
-4 52 -16 0 -34 -7 -41 -16z"/>
<path d="M8240 4764 c-18 -21 -17 -72 3 -91 13 -14 21 -14 42 -5 20 9 25 19
25 46 0 55 -42 85 -70 50z"/>
<path d="M8620 4695 c-15 -18 -6 -45 15 -45 28 0 55 20 55 40 0 15 -7 20 -29
20 -16 0 -34 -7 -41 -15z"/>
<path d="M8956 4764 c-9 -8 -16 -28 -16 -44 0 -16 7 -36 16 -44 18 -19 20 -19
45 -6 14 8 19 21 19 50 0 29 -5 42 -19 50 -25 13 -27 13 -45 -6z"/>
<path d="M9280 4694 c-11 -12 -10 -18 3 -31 13 -14 21 -14 42 -5 36 17 34 52
-4 52 -16 0 -34 -7 -41 -16z"/>
<path d="M9450 4764 c-18 -21 -17 -72 3 -91 13 -14 21 -14 42 -5 20 9 25 19
25 46 0 55 -42 85 -70 50z"/>
<path d="M9622 4768 c-24 -24 -13 -38 28 -38 26 0 40 5 40 13 0 18 -21 37 -40
37 -9 0 -21 -5 -28 -12z"/>
<path d="M7600 4142 c0 -44 3 -83 8 -85 8 -6 5 153 -3 161 -3 3 -5 -31 -5 -76z"/>
<path d="M7724 4130 c0 -52 1 -74 3 -47 2 26 2 68 0 95 -2 26 -3 4 -3 -48z"/>
<path d="M9232 4130 c0 -52 2 -89 5 -82 2 6 10 9 16 6 8 -5 8 -2 0 7 -16 17
-17 61 -1 77 9 9 9 12 1 12 -7 0 -14 17 -16 38 -2 20 -4 -6 -5 -58z"/>
<path d="M11024 4130 c0 -52 1 -74 3 -47 2 26 2 68 0 95 -2 26 -3 4 -3 -48z"/>
<path d="M11234 4130 c0 -52 1 -74 3 -47 2 26 2 68 0 95 -2 26 -3 4 -3 -48z"/>
<path d="M11541 4190 c-6 -86 -5 -138 2 -131 4 4 6 43 4 87 -1 43 -4 63 -6 44z"/>
<path d="M3152 4123 l2 -88 5 75 6 75 13 -43 c7 -24 15 -42 17 -40 7 7 -28
108 -37 108 -4 0 -7 -39 -6 -87z"/>
<path d="M3250 4145 c-20 -60 -40 -92 -40 -64 0 7 -2 10 -5 7 -3 -3 -1 -16 4
-29 8 -24 9 -23 23 11 8 19 21 53 29 75 l14 40 6 -75 5 -75 2 88 c1 48 -2 87
-7 87 -5 0 -19 -29 -31 -65z"/>
<path d="M4940 4202 c0 -5 13 -7 28 -4 33 4 55 -17 50 -50 -2 -19 -9 -23 -41
-23 -20 0 -37 -5 -37 -11 0 -13 59 -6 78 8 19 16 15 66 -7 78 -23 12 -71 13
-71 2z"/>
<path d="M5440 4200 c0 -5 5 -10 10 -10 6 0 10 5 10 10 0 6 -4 10 -10 10 -5 0
-10 -4 -10 -10z"/>
<path d="M6870 4125 l0 -85 48 2 47 1 -42 4 c-41 4 -43 5 -43 38 0 32 2 34 38
38 l37 4 -37 1 c-36 2 -38 4 -38 36 0 34 1 35 43 39 l42 4 -47 1 -48 2 0 -85z"/>
<path d="M8982 4123 c1 -49 3 -71 5 -49 4 36 6 38 34 34 24 -4 34 0 46 19 16
24 11 73 -7 73 -6 0 -5 -9 2 -20 18 -28 -1 -54 -41 -58 -30 -3 -31 -2 -31 37
0 36 3 40 28 44 25 4 25 4 -5 6 l-33 1 2 -87z"/>
<path d="M10780 4202 c0 -5 13 -7 28 -4 33 4 55 -17 50 -50 -2 -19 -9 -23 -41
-23 -20 0 -37 -5 -37 -11 0 -13 59 -6 78 8 19 16 15 66 -7 78 -23 12 -71 13
-71 2z"/>
<path d="M11060 4200 c0 -5 5 -10 10 -10 6 0 10 5 10 10 0 6 -4 10 -10 10 -5
0 -10 -4 -10 -10z"/>
<path d="M3451 4178 c0 -9 -7 -19 -13 -21 -10 -4 -10 -6 0 -6 7 -1 12 -17 12
-44 0 -42 13 -67 35 -67 5 0 2 5 -7 11 -13 7 -18 23 -18 54 0 37 3 44 23 48
22 4 22 4 0 6 -12 0 -24 9 -26 19 -4 15 -5 15 -6 0z"/>
<path d="M5371 4178 c0 -9 -7 -19 -13 -21 -10 -4 -10 -6 0 -6 8 -1 12 -18 12
-50 0 -35 4 -51 16 -55 24 -9 31 -7 12 5 -13 7 -18 23 -18 54 0 33 4 45 18 48
15 4 15 5 0 6 -9 0 -19 9 -21 19 -4 15 -5 15 -6 0z"/>
<path d="M7111 4178 c0 -9 -7 -19 -13 -21 -10 -4 -10 -6 0 -6 7 -1 12 -17 12
-44 0 -45 13 -67 40 -66 9 0 6 4 -7 9 -19 8 -23 17 -23 54 0 38 3 45 23 49 22
4 22 4 0 6 -12 0 -24 9 -26 19 -4 15 -5 15 -6 0z"/>
<path d="M9601 4178 c0 -9 -7 -19 -13 -21 -10 -4 -10 -6 0 -6 8 -1 12 -18 12
-50 0 -35 4 -51 16 -55 24 -9 31 -7 12 5 -13 7 -18 23 -18 54 0 33 4 45 18 48
15 4 15 5 0 6 -9 0 -19 9 -21 19 -4 15 -5 15 -6 0z"/>
<path d="M3343 4153 c-7 -2 -13 -9 -13 -14 0 -5 9 -4 19 3 15 9 23 9 35 -1 9
-8 16 -9 16 -3 0 17 -32 26 -57 15z"/>
<path d="M3532 4108 c-2 -50 1 -57 19 -63 12 -4 25 -3 30 2 6 6 1 9 -13 9 -21
-1 -24 5 -29 54 l-6 55 -1 -57z"/>
<path d="M3603 4105 c0 -33 2 -45 4 -27 2 18 2 45 0 60 -2 15 -4 0 -4 -33z"/>
<path d="M3668 4149 c-14 -8 -18 -22 -16 -62 l2 -52 3 49 c3 31 11 54 21 63
20 15 14 16 -10 2z"/>
<path d="M5078 4149 c-14 -8 -18 -22 -16 -62 l2 -52 3 49 c3 31 11 54 21 63
20 15 14 16 -10 2z"/>
<path d="M5143 4153 c-7 -2 -13 -9 -13 -14 0 -5 9 -4 19 3 15 9 23 9 35 -1 9
-8 16 -9 16 -3 0 17 -32 26 -57 15z"/>
<path d="M5256 4144 c-31 -31 -11 -104 29 -104 7 0 21 7 29 16 23 23 19 30 -5
8 -28 -25 -54 -8 -54 36 0 44 26 61 54 36 24 -22 28 -15 5 8 -8 9 -22 16 -29
16 -7 0 -21 -7 -29 -16z"/>
<path d="M5506 4144 c-30 -29 -11 -104 25 -104 17 0 49 20 49 31 0 6 -7 3 -16
-5 -30 -30 -64 -12 -64 35 0 34 22 53 52 44 18 -5 20 -4 8 4 -21 15 -36 14
-54 -5z"/>
<path d="M5658 4150 c18 -8 22 -18 24 -57 l1 -48 4 43 c4 46 -9 72 -36 71 -11
0 -9 -3 7 -9z"/>
<path d="M6990 4155 c0 -6 7 -21 16 -33 14 -20 14 -24 0 -44 -9 -12 -16 -27
-16 -33 1 -5 8 3 17 19 l16 30 24 -30 25 -29 -17 34 c-16 32 -16 36 0 65 l16
31 -22 -28 -22 -28 -18 28 c-11 15 -19 23 -19 18z"/>
<path d="M7239 4147 c41 -21 37 -37 -8 -37 -37 0 -41 -3 -41 -24 0 -14 4 -27
9 -30 4 -3 6 6 3 19 -4 23 -2 25 37 25 28 0 41 4 41 13 0 18 -32 47 -51 47 -8
0 -3 -6 10 -13z"/>
<path d="M7313 4100 c0 -50 1 -55 4 -20 3 24 10 51 16 59 9 11 9 13 0 8 -6 -4
-14 -1 -16 5 -3 7 -5 -16 -4 -52z"/>
<path d="M7366 4146 c10 -8 21 -12 24 -10 5 6 -21 24 -34 24 -6 0 -1 -6 10
-14z"/>
<path d="M7480 4147 c14 -8 27 -12 30 -10 7 6 -23 23 -40 23 -8 0 -4 -6 10
-13z"/>
<path d="M7553 4100 c0 -36 2 -50 4 -32 2 17 2 47 0 65 -2 17 -4 3 -4 -33z"/>
<path d="M7648 4150 c12 -5 22 -17 23 -27 0 -11 3 -13 6 -5 7 17 -15 42 -36
41 -11 0 -9 -3 7 -9z"/>
<path d="M7777 4142 c-32 -35 -10 -102 34 -102 8 0 3 6 -11 13 -14 7 -26 20
-28 30 -3 14 4 17 37 17 34 0 41 3 41 19 0 11 -4 22 -9 25 -5 4 -7 -3 -4 -14
5 -17 0 -20 -32 -20 -42 0 -44 17 -4 37 15 8 18 13 8 13 -9 0 -23 -8 -32 -18z"/>
<path d="M9126 4144 c-31 -31 -11 -104 29 -104 23 0 45 30 45 60 0 30 -22 60
-45 60 -7 0 -21 -7 -29 -16z m53 -8 c17 -20 10 -67 -11 -79 -23 -15 -48 8 -48
42 0 45 35 66 59 37z"/>
<path d="M9288 4144 c14 -10 22 -26 22 -44 0 -18 -8 -34 -22 -44 -25 -18 -17
-21 13 -6 14 8 19 21 19 50 0 29 -5 42 -19 50 -30 15 -38 12 -13 -6z"/>
<path d="M9353 4115 c0 -27 2 -38 4 -22 2 15 2 37 0 50 -2 12 -4 0 -4 -28z"/>
<path d="M9430 4117 c0 -24 -6 -49 -12 -56 -9 -9 -9 -12 -1 -7 6 3 14 0 16 -6
3 -7 6 15 6 50 1 34 -1 62 -4 62 -3 0 -5 -19 -5 -43z"/>
<path d="M9508 4153 c7 -3 16 -2 19 1 4 3 -2 6 -13 5 -11 0 -14 -3 -6 -6z"/>
<path d="M10907 4142 c-23 -25 -21 -65 3 -87 17 -15 24 -16 45 -7 21 10 25 19
25 51 0 30 -5 43 -19 51 -27 14 -35 13 -54 -8z m47 2 c11 -4 16 -19 16 -44 0
-30 -5 -40 -20 -45 -28 -9 -50 11 -50 44 0 40 21 58 54 45z"/>
<path d="M11148 4153 c7 -3 16 -2 19 1 4 3 -2 6 -13 5 -11 0 -14 -3 -6 -6z"/>
<path d="M11283 4148 c10 -8 17 -32 20 -63 l3 -50 2 56 c2 44 -2 58 -14 63
-25 10 -29 7 -11 -6z"/>
<path d="M11399 4147 c41 -21 37 -37 -8 -37 -37 0 -41 -3 -41 -24 0 -14 4 -27
9 -30 4 -3 6 6 3 19 -4 23 -2 25 37 25 28 0 41 4 41 13 0 18 -32 47 -51 47 -8
0 -3 -6 10 -13z"/>
<path d="M3786 4137 c3 -10 9 -15 12 -12 3 3 0 11 -7 18 -10 9 -11 8 -5 -6z"/>
<path d="M5615 4139 c-4 -6 -5 -12 -2 -15 2 -3 7 2 10 11 7 17 1 20 -8 4z"/>
<path d="M7195 4139 c-4 -6 -5 -12 -2 -15 2 -3 7 2 10 11 7 17 1 20 -8 4z"/>
<path d="M7434 4135 c-7 -17 3 -35 19 -35 8 0 7 3 -2 9 -8 5 -11 16 -8 25 4 9
4 16 1 16 -2 0 -7 -7 -10 -15z"/>
<path d="M11355 4139 c-4 -6 -5 -12 -2 -15 2 -3 7 2 10 11 7 17 1 20 -8 4z"/>
<path d="M11473 4135 c-3 -9 -3 -18 -1 -21 3 -3 8 4 11 16 6 23 -1 27 -10 5z"/>
<path d="M9482 4114 c10 -10 20 -16 22 -13 3 3 -5 11 -17 18 -21 13 -21 12 -5
-5z"/>
<path d="M11122 4114 c10 -10 20 -16 22 -13 3 3 -5 11 -17 18 -21 13 -21 12
-5 -5z"/>
<path d="M3710 4099 c0 -8 7 -24 16 -35 15 -18 15 -18 5 3 -16 31 -16 32 37
35 l47 3 -53 5 c-42 4 -52 2 -52 -11z"/>
<path d="M3378 4103 c24 -5 29 -22 10 -42 -9 -9 -9 -12 -1 -7 6 3 14 0 16 -6
3 -7 6 4 6 25 1 34 -1 37 -26 36 -24 -2 -25 -2 -5 -6z"/>
<path d="M5178 4103 c24 -5 29 -22 10 -42 -9 -9 -9 -12 -1 -7 6 3 14 0 16 -6
3 -7 6 4 6 25 1 34 -1 37 -26 36 -24 -2 -25 -2 -5 -6z"/>
<path d="M5648 4103 c7 -3 16 -2 19 1 4 3 -2 6 -13 5 -11 0 -14 -3 -6 -6z"/>
<path d="M3324 4085 c-8 -19 13 -45 35 -44 10 0 8 4 -8 10 -17 7 -22 15 -18
29 6 23 -1 27 -9 5z"/>
<path d="M5124 4085 c-8 -19 13 -45 35 -44 10 0 8 4 -8 10 -17 7 -22 15 -18
29 6 23 -1 27 -9 5z"/>
<path d="M5617 4093 c-13 -12 -7 -41 9 -47 25 -10 29 -7 9 8 -11 8 -16 19 -12
30 7 17 5 20 -6 9z"/>
<path d="M7497 4080 c4 -14 -1 -22 -18 -29 -13 -5 -19 -10 -12 -10 26 -2 43
12 43 35 0 13 -4 24 -9 24 -5 0 -7 -9 -4 -20z"/>
<path d="M7671 4077 c-1 -10 -11 -22 -23 -27 -16 -6 -18 -9 -7 -9 21 -1 43 24
36 41 -3 8 -6 6 -6 -5z"/>
<path d="M9050 4084 c0 -6 7 -19 16 -30 14 -18 14 -18 3 6 -14 31 -19 36 -19
24z"/>
<path d="M11470 4076 c0 -8 4 -17 9 -20 5 -4 7 3 4 14 -6 23 -13 26 -13 6z"/>
<path d="M7260 4065 c-7 -8 -19 -15 -28 -15 -8 0 -13 -3 -9 -6 9 -9 45 5 51
21 7 19 2 19 -14 0z"/>
<path d="M7836 4063 c-6 -14 -5 -15 5 -6 7 7 10 15 7 18 -3 3 -9 -2 -12 -12z"/>
<path d="M11420 4065 c-7 -8 -19 -15 -28 -15 -8 0 -13 -3 -9 -6 9 -9 45 5 51
21 7 19 2 19 -14 0z"/>
<path d="M3770 4054 c-17 -9 -20 -14 -9 -14 9 0 22 7 29 15 15 18 13 18 -20
-1z"/>
<path d="M9368 4048 c5 -5 16 -8 23 -6 8 3 3 7 -10 11 -17 4 -21 3 -13 -5z"/>
<path d="M9508 4043 c7 -3 16 -2 19 1 4 3 -2 6 -13 5 -11 0 -14 -3 -6 -6z"/>
<path d="M11148 4043 c7 -3 16 -2 19 1 4 3 -2 6 -13 5 -11 0 -14 -3 -6 -6z"/>
<path d="M4962 3883 c1314 -2 3462 -2 4775 0 1314 1 239 2 -2387 2 -2626 0
-3701 -1 -2388 -2z"/>
<path d="M7530 3726 c0 -8 51 -13 56 -5 3 5 -9 9 -25 9 -17 0 -31 -2 -31 -4z"/>
<path d="M8298 3723 c6 -2 18 -2 25 0 6 3 1 5 -13 5 -14 0 -19 -2 -12 -5z"/>
<path d="M7863 3675 c0 -27 2 -38 4 -22 2 15 2 37 0 50 -2 12 -4 0 -4 -28z"/>
<path d="M7783 3675 c0 -22 2 -30 4 -17 2 12 2 30 0 40 -3 9 -5 -1 -4 -23z"/>
<path d="M8022 3680 c0 -19 2 -27 5 -17 2 9 2 25 0 35 -3 9 -5 1 -5 -18z"/>
<path d="M8260 3701 c0 -5 -12 -12 -27 -14 -26 -4 -26 -4 5 -6 22 -1 32 3 32
14 0 8 -2 15 -5 15 -3 0 -5 -4 -5 -9z"/>
<path d="M8402 3690 c0 -14 2 -19 5 -12 2 6 2 18 0 25 -3 6 -5 1 -5 -13z"/>
<path d="M8150 3685 c-11 -13 -10 -14 4 -9 9 3 16 10 16 15 0 13 -6 11 -20 -6z"/>
<path d="M7524 3682 c5 -8 66 -4 66 4 0 2 -16 4 -36 4 -19 0 -33 -4 -30 -8z"/>
<path d="M7818 3658 c5 -5 16 -8 23 -6 8 3 3 7 -10 11 -17 4 -21 3 -13 -5z"/>
<path d="M7657 3649 c7 -7 15 -10 18 -7 3 3 -2 9 -12 12 -14 6 -15 5 -6 -5z"/>
<path d="M7977 3649 c7 -7 15 -10 18 -7 3 3 -2 9 -12 12 -14 6 -15 5 -6 -5z"/>
<path d="M8307 3649 c7 -7 15 -10 18 -7 3 3 -2 9 -12 12 -14 6 -15 5 -6 -5z"/>
<path d="M7783 3373 c-4 -10 -11 -21 -17 -25 -7 -5 -7 -8 2 -8 6 0 13 -12 13
-27 2 -28 2 -28 6 -3 3 14 10 28 17 32 8 6 8 8 -1 8 -7 0 -13 6 -13 14 0 8 6
17 13 19 9 4 9 6 -1 6 -7 1 -16 -7 -19 -16z"/>
<path d="M8397 3382 c6 -4 13 -25 15 -46 2 -22 9 -41 16 -42 7 -1 8 0 2 3 -5
2 -10 25 -10 49 0 35 -3 44 -17 44 -12 0 -14 -3 -6 -8z"/>
<path d="M9427 3382 c6 -4 13 -25 15 -46 2 -22 9 -41 16 -42 7 -1 8 0 2 3 -5
2 -10 25 -10 49 0 35 -3 44 -17 44 -12 0 -14 -3 -6 -8z"/>
<path d="M9190 3335 c0 -43 1 -45 28 -44 23 2 24 2 5 6 -27 5 -31 30 -5 36 16
4 16 5 0 6 -26 2 -22 29 5 34 19 4 18 4 -5 6 -27 1 -28 -1 -28 -44z"/>
<path d="M7610 3345 c-6 -8 -10 -19 -8 -24 1 -6 8 1 15 14 13 28 11 31 -7 10z"/>
<path d="M7700 3356 c0 -2 7 -7 16 -10 8 -3 12 -2 9 4 -6 10 -25 14 -25 6z"/>
<path d="M7923 3325 c0 -22 2 -30 4 -17 2 12 2 30 0 40 -3 9 -5 -1 -4 -23z"/>
<path d="M7959 3322 c5 -34 6 -35 9 -8 2 16 0 32 -5 37 -5 5 -7 -7 -4 -29z"/>
<path d="M8020 3356 c0 -2 7 -7 16 -10 8 -3 12 -2 9 4 -6 10 -25 14 -25 6z"/>
<path d="M8480 3356 c0 -2 9 -6 20 -9 11 -3 18 -1 14 4 -5 9 -34 13 -34 5z"/>
<path d="M8812 3354 c9 -3 19 -16 21 -30 4 -21 4 -21 3 3 -1 20 -7 28 -21 30
-14 1 -15 0 -3 -3z"/>
<path d="M8970 3356 c0 -2 7 -7 16 -10 8 -3 12 -2 9 4 -6 10 -25 14 -25 6z"/>
<path d="M9518 3353 c7 -3 16 -2 19 1 4 3 -2 6 -13 5 -11 0 -14 -3 -6 -6z"/>
<path d="M8001 3325 c0 -16 3 -25 7 -19 4 7 16 14 27 17 19 4 19 5 -2 6 -12 0
-24 7 -26 14 -3 6 -6 -1 -6 -18z"/>
<path d="M8152 3320 c0 -19 2 -27 5 -17 2 9 2 25 0 35 -3 9 -5 1 -5 -18z"/>
<path d="M9781 3334 c0 -11 3 -14 6 -6 3 7 2 16 -1 19 -3 4 -6 -2 -5 -13z"/>
<path d="M7680 3325 c0 -14 21 -35 35 -35 5 0 1 6 -10 12 -19 12 -18 13 10 18
l30 6 -32 5 c-21 4 -33 1 -33 -6z"/>
<path d="M8328 3333 c6 -2 18 -2 25 0 6 3 1 5 -13 5 -14 0 -19 -2 -12 -5z"/>
<path d="M9615 3318 c4 -11 0 -18 -12 -21 -15 -4 -16 -5 -1 -6 22 -1 33 18 19
32 -9 9 -11 8 -6 -5z"/>
<path d="M8470 3311 c0 -10 19 -25 25 -20 1 2 -3 10 -11 17 -8 7 -14 8 -14 3z"/>
<path d="M8790 3311 c0 -6 4 -13 10 -16 6 -3 7 1 4 9 -7 18 -14 21 -14 7z"/>
<path d="M8878 3298 c5 -5 16 -8 23 -6 8 3 3 7 -10 11 -17 4 -21 3 -13 -5z"/>
<path d="M7858 3293 c6 -2 18 -2 25 0 6 3 1 5 -13 5 -14 0 -19 -2 -12 -5z"/>
<path d="M8648 3293 c7 -3 16 -2 19 1 4 3 -2 6 -13 5 -11 0 -14 -3 -6 -6z"/>
<path d="M9358 3293 c7 -3 16 -2 19 1 4 3 -2 6 -13 5 -11 0 -14 -3 -6 -6z"/>
<path d="M9518 3293 c6 -2 18 -2 25 0 6 3 1 5 -13 5 -14 0 -19 -2 -12 -5z"/>
<path d="M9348 3268 c5 -5 16 -8 23 -6 8 3 3 7 -10 11 -17 4 -21 3 -13 -5z"/>
<path d="M8648 3263 c7 -3 16 -2 19 1 4 3 -2 6 -13 5 -11 0 -14 -3 -6 -6z"/>
<path d="M8888 3263 c7 -3 16 -2 19 1 4 3 -2 6 -13 5 -11 0 -14 -3 -6 -6z"/>
<path d="M5420 3205 c-83 -14 -217 -49 -228 -60 -7 -6 -14 -1 93 -70 129 -83
221 -160 376 -314 248 -248 461 -526 652 -849 140 -236 298 -578 368 -799 13
-40 26 -73 30 -73 10 0 101 144 143 228 52 103 101 259 122 381 20 125 15 372
-11 490 -114 520 -491 911 -1003 1043 -102 26 -139 30 -287 34 -118 2 -196 -1
-255 -11z"/>
<path d="M7783 3063 c-4 -10 -11 -21 -17 -25 -7 -5 -7 -8 2 -8 6 0 13 -12 13
-27 2 -28 2 -28 6 -3 3 14 10 28 17 32 8 6 8 8 -1 8 -7 0 -13 6 -13 14 0 8 6
17 13 19 9 4 9 6 -1 6 -7 1 -16 -7 -19 -16z"/>
<path d="M8557 3072 c6 -4 13 -25 15 -46 2 -22 9 -41 16 -42 7 -1 8 0 2 3 -5
2 -10 25 -10 49 0 35 -3 44 -17 44 -12 0 -14 -3 -6 -8z"/>
<path d="M8167 3054 c-9 -9 9 -68 21 -70 7 -1 8 0 2 3 -14 7 -13 50 2 55 8 3
6 6 -4 10 -9 4 -18 5 -21 2z"/>
<path d="M7610 3035 c-6 -8 -10 -19 -8 -24 1 -6 8 1 15 14 13 28 11 31 -7 10z"/>
<path d="M7700 3046 c0 -2 7 -7 16 -10 8 -3 12 -2 9 4 -6 10 -25 14 -25 6z"/>
<path d="M7923 3015 c0 -22 2 -30 4 -17 2 12 2 30 0 40 -3 9 -5 -1 -4 -23z"/>
<path d="M7959 3012 c5 -34 6 -35 9 -8 2 16 0 32 -5 37 -5 5 -7 -7 -4 -29z"/>
<path d="M8020 3046 c0 -2 7 -7 16 -10 8 -3 12 -2 9 4 -6 10 -25 14 -25 6z"/>
<path d="M8246 3037 c3 -10 9 -15 12 -12 3 3 0 11 -7 18 -10 9 -11 8 -5 -6z"/>
<path d="M8652 3044 c9 -3 19 -16 21 -30 4 -21 4 -21 3 3 -1 20 -7 28 -21 30
-14 1 -15 0 -3 -3z"/>
<path d="M8728 3043 c7 -3 16 -2 19 1 4 3 -2 6 -13 5 -11 0 -14 -3 -6 -6z"/>
<path d="M9035 3039 c-4 -6 -4 -13 -1 -16 3 -4 6 -1 6 5 0 6 8 13 18 15 15 4
15 5 0 6 -9 0 -20 -4 -23 -10z"/>
<path d="M8001 3015 c0 -16 3 -25 7 -19 4 7 16 14 27 17 19 4 19 5 -2 6 -12 0
-24 7 -26 14 -3 6 -6 -1 -6 -18z"/>
<path d="M8952 3010 c0 -19 2 -27 5 -17 2 9 2 25 0 35 -3 9 -5 1 -5 -18z"/>
<path d="M8992 3010 c0 -19 2 -27 5 -17 2 9 2 25 0 35 -3 9 -5 1 -5 -18z"/>
<path d="M7680 3015 c0 -14 21 -35 35 -35 5 0 1 6 -10 12 -19 12 -18 13 10 18
l30 6 -32 5 c-21 4 -33 1 -33 -6z"/>
<path d="M9066 3007 c3 -10 9 -15 12 -12 3 3 0 11 -7 18 -10 9 -11 8 -5 -6z"/>
<path d="M8630 3001 c0 -6 4 -13 10 -16 6 -3 7 1 4 9 -7 18 -14 21 -14 7z"/>
<path d="M7858 2983 c6 -2 18 -2 25 0 6 3 1 5 -13 5 -14 0 -19 -2 -12 -5z"/>
<path d="M8248 2983 c7 -3 16 -2 19 1 4 3 -2 6 -13 5 -11 0 -14 -3 -6 -6z"/>
<path d="M8808 2983 c6 -2 18 -2 25 0 6 3 1 5 -13 5 -14 0 -19 -2 -12 -5z"/>
<path d="M9290 2896 c0 -2 11 -6 25 -8 14 -3 25 -1 25 3 0 5 -11 9 -25 9 -14
0 -25 -2 -25 -4z"/>
<path d="M9613 2893 c15 -2 37 -2 50 0 12 2 0 4 -28 4 -27 0 -38 -2 -22 -4z"/>
<path d="M8178 2883 c7 -3 16 -2 19 1 4 3 -2 6 -13 5 -11 0 -14 -3 -6 -6z"/>
<path d="M9041 2874 c0 -11 3 -14 6 -6 3 7 2 16 -1 19 -3 4 -6 -2 -5 -13z"/>
<path d="M9061 2874 c0 -11 3 -14 6 -6 3 7 2 16 -1 19 -3 4 -6 -2 -5 -13z"/>
<path d="M4654 2798 c-233 -243 -358 -535 -371 -868 -11 -286 53 -544 194
-772 49 -79 122 -178 132 -178 3 0 19 37 35 83 140 402 468 949 743 1238 l53
56 -113 109 c-126 124 -258 228 -386 308 -92 57 -184 106 -199 106 -5 0 -45
-37 -88 -82z"/>
<path d="M8003 2835 c0 -27 2 -38 4 -22 2 15 2 37 0 50 -2 12 -4 0 -4 -28z"/>
<path d="M9146 2872 c-2 -4 11 -6 30 -4 19 2 34 6 34 8 0 8 -59 4 -64 -4z"/>
<path d="M9240 2876 c0 -2 9 -6 20 -9 11 -3 20 -1 20 4 0 5 -9 9 -20 9 -11 0
-20 -2 -20 -4z"/>
<path d="M9105 2860 c-3 -5 -1 -10 4 -10 6 0 11 5 11 10 0 6 -2 10 -4 10 -3 0
-8 -4 -11 -10z"/>
<path d="M9478 2863 c18 -2 45 -2 60 0 15 2 0 4 -33 4 -33 0 -45 -2 -27 -4z"/>
<path d="M7698 2853 c6 -2 18 -2 25 0 6 3 1 5 -13 5 -14 0 -19 -2 -12 -5z"/>
<path d="M7862 2854 c9 -3 19 -16 21 -30 4 -21 4 -21 3 3 -1 20 -7 28 -21 30
-14 1 -15 0 -3 -3z"/>
<path d="M7925 2849 c-4 -6 -4 -13 -1 -16 3 -4 6 -1 6 5 0 6 8 13 18 15 15 4
15 5 0 6 -9 0 -20 -4 -23 -10z"/>
<path d="M8039 2822 c5 -34 6 -35 9 -8 2 16 0 32 -5 37 -5 5 -7 -7 -4 -29z"/>
<path d="M8408 2853 c7 -3 16 -2 19 1 4 3 -2 6 -13 5 -11 0 -14 -3 -6 -6z"/>
<path d="M9620 2843 c14 -3 30 -9 36 -14 7 -5 11 -3 11 6 0 11 -11 15 -36 14
-28 -1 -30 -3 -11 -6z"/>
<path d="M8710 2824 c0 -8 5 -12 10 -9 6 4 8 11 5 16 -9 14 -15 11 -15 -7z"/>
<path d="M9303 2833 c9 -2 25 -2 35 0 9 3 1 5 -18 5 -19 0 -27 -2 -17 -5z"/>
<path d="M7956 2817 c3 -10 9 -15 12 -12 3 3 0 11 -7 18 -10 9 -11 8 -5 -6z"/>
<path d="M8665 2818 c4 -11 0 -18 -12 -21 -15 -4 -16 -5 -1 -6 22 -1 33 18 19
32 -9 9 -11 8 -6 -5z"/>
<path d="M7693 2813 c9 -2 23 -2 30 0 6 3 -1 5 -18 5 -16 0 -22 -2 -12 -5z"/>
<path d="M7840 2811 c0 -6 4 -13 10 -16 6 -3 7 1 4 9 -7 18 -14 21 -14 7z"/>
<path d="M9253 2813 c4 -3 1 -13 -6 -22 -10 -14 -10 -14 4 -4 9 7 19 10 23 6
4 -4 4 0 0 10 -3 9 -11 17 -17 17 -6 0 -7 -3 -4 -7z"/>
<path d="M9508 2813 c6 -2 18 -2 25 0 6 3 1 5 -13 5 -14 0 -19 -2 -12 -5z"/>
<path d="M8408 2793 c6 -2 18 -2 25 0 6 3 1 5 -13 5 -14 0 -19 -2 -12 -5z"/>
<path d="M9493 2783 c15 -2 37 -2 50 0 12 2 0 4 -28 4 -27 0 -38 -2 -22 -4z"/>
<path d="M8178 2773 c7 -3 16 -2 19 1 4 3 -2 6 -13 5 -11 0 -14 -3 -6 -6z"/>
<path d="M8178 2703 c7 -3 16 -2 19 1 4 3 -2 6 -13 5 -11 0 -14 -3 -6 -6z"/>
<path d="M8477 2702 c6 -4 13 -25 15 -46 2 -22 9 -41 16 -42 7 -1 8 0 2 3 -5
2 -10 25 -10 49 0 35 -3 44 -17 44 -12 0 -14 -3 -6 -8z"/>
<path d="M9041 2694 c0 -11 3 -14 6 -6 3 7 2 16 -1 19 -3 4 -6 -2 -5 -13z"/>
<path d="M9061 2694 c0 -11 3 -14 6 -6 3 7 2 16 -1 19 -3 4 -6 -2 -5 -13z"/>
<path d="M9347 2702 c6 -4 13 -25 15 -46 2 -22 9 -41 16 -42 7 -1 8 0 2 3 -5
2 -10 25 -10 49 0 35 -3 44 -17 44 -12 0 -14 -3 -6 -8z"/>
<path d="M9991 2694 c0 -11 3 -14 6 -6 3 7 2 16 -1 19 -3 4 -6 -2 -5 -13z"/>
<path d="M10011 2694 c0 -11 3 -14 6 -6 3 7 2 16 -1 19 -3 4 -6 -2 -5 -13z"/>
<path d="M8240 2655 c0 -43 1 -45 28 -44 23 2 24 2 5 6 -27 5 -31 30 -5 36 16
4 16 5 0 6 -26 2 -22 29 5 34 19 4 18 4 -5 6 -27 1 -28 -1 -28 -44z"/>
<path d="M9150 2681 c0 -12 -8 -21 -22 -24 -23 -4 -23 -4 -1 -6 14 -1 23 -9
26 -23 2 -13 5 -2 6 25 0 26 -1 47 -4 47 -3 0 -5 -9 -5 -19z"/>
<path d="M9943 2655 c0 -27 2 -38 4 -22 2 15 2 37 0 50 -2 12 -4 0 -4 -28z"/>
<path d="M8568 2673 c7 -3 16 -2 19 1 4 3 -2 6 -13 5 -11 0 -14 -3 -6 -6z"/>
<path d="M9195 2670 c-3 -6 1 -7 9 -4 18 7 21 14 7 14 -6 0 -13 -4 -16 -10z"/>
<path d="M9680 2676 c0 -2 7 -7 16 -10 8 -3 12 -2 9 4 -6 10 -25 14 -25 6z"/>
<path d="M9905 2670 c-3 -6 1 -7 9 -4 18 7 21 14 7 14 -6 0 -13 -4 -16 -10z"/>
<path d="M9421 2644 c0 -11 3 -14 6 -6 3 7 2 16 -1 19 -3 4 -6 -2 -5 -13z"/>
<path d="M9471 2644 c0 -11 3 -14 6 -6 3 7 2 16 -1 19 -3 4 -6 -2 -5 -13z"/>
<path d="M9661 2644 c0 -11 3 -14 6 -6 3 7 2 16 -1 19 -3 4 -6 -2 -5 -13z"/>
<path d="M8665 2638 c4 -11 0 -18 -12 -21 -15 -4 -16 -5 -1 -6 22 -1 33 18 19
32 -9 9 -11 8 -6 -5z"/>
<path d="M9197 2619 c7 -7 15 -10 18 -7 3 3 -2 9 -12 12 -14 6 -15 5 -6 -5z"/>
<path d="M9690 2620 c-9 -6 -10 -10 -3 -10 6 0 15 5 18 10 8 12 4 12 -15 0z"/>
<path d="M8408 2613 c7 -3 16 -2 19 1 4 3 -2 6 -13 5 -11 0 -14 -3 -6 -6z"/>
<path d="M8568 2613 c6 -2 18 -2 25 0 6 3 1 5 -13 5 -14 0 -19 -2 -12 -5z"/>
<path d="M8178 2593 c7 -3 16 -2 19 1 4 3 -2 6 -13 5 -11 0 -14 -3 -6 -6z"/>
<path d="M8398 2588 c5 -5 16 -8 23 -6 8 3 3 7 -10 11 -17 4 -21 3 -13 -5z"/>
<path d="M8178 2513 c7 -3 16 -2 19 1 4 3 -2 6 -13 5 -11 0 -14 -3 -6 -6z"/>
<path d="M8961 2504 c0 -11 3 -14 6 -6 3 7 2 16 -1 19 -3 4 -6 -2 -5 -13z"/>
<path d="M8981 2504 c0 -11 3 -14 6 -6 3 7 2 16 -1 19 -3 4 -6 -2 -5 -13z"/>
<path d="M8253 2503 c9 -2 23 -2 30 0 6 3 -1 5 -18 5 -16 0 -22 -2 -12 -5z"/>
<path d="M9030 2465 c0 -40 2 -45 23 -44 16 1 18 2 5 6 -10 2 -18 11 -18 18 0
7 8 16 18 18 16 4 16 5 0 6 -21 1 -24 27 -5 34 7 3 5 6 -5 6 -15 1 -18 -8 -18
-44z"/>
<path d="M8326 2477 c3 -10 9 -15 12 -12 3 3 0 11 -7 18 -10 9 -11 8 -5 -6z"/>
<path d="M9115 2480 c-3 -6 1 -7 9 -4 18 7 21 14 7 14 -6 0 -13 -4 -16 -10z"/>
<path d="M9287 2482 c6 -4 13 -21 16 -37 4 -27 4 -27 6 8 1 29 -3 37 -16 37
-12 0 -14 -3 -6 -8z"/>
<path d="M9516 2477 c3 -10 9 -15 12 -12 3 3 0 11 -7 18 -10 9 -11 8 -5 -6z"/>
<path d="M10145 2480 c-3 -6 1 -7 9 -4 18 7 21 14 7 14 -6 0 -13 -4 -16 -10z"/>
<path d="M10225 2480 c-3 -6 1 -7 9 -4 18 7 21 14 7 14 -6 0 -13 -4 -16 -10z"/>
<path d="M9922 2450 c0 -19 2 -27 5 -17 2 9 2 25 0 35 -3 9 -5 1 -5 -18z"/>
<path d="M8248 2463 c6 -2 18 -2 25 0 6 3 1 5 -13 5 -14 0 -19 -2 -12 -5z"/>
<path d="M9151 2454 c0 -11 3 -14 6 -6 3 7 2 16 -1 19 -3 4 -6 -2 -5 -13z"/>
<path d="M9341 2454 c0 -11 3 -14 6 -6 3 7 2 16 -1 19 -3 4 -6 -2 -5 -13z"/>
<path d="M9391 2454 c0 -11 3 -14 6 -6 3 7 2 16 -1 19 -3 4 -6 -2 -5 -13z"/>
<path d="M9740 2454 c0 -8 5 -12 10 -9 6 4 8 11 5 16 -9 14 -15 11 -15 -7z"/>
<path d="M8567 2429 c7 -7 15 -10 18 -7 3 3 -2 9 -12 12 -14 6 -15 5 -6 -5z"/>
<path d="M9117 2429 c7 -7 15 -10 18 -7 3 3 -2 9 -12 12 -14 6 -15 5 -6 -5z"/>
<path d="M9687 2429 c7 -7 15 -10 18 -7 3 3 -2 9 -12 12 -14 6 -15 5 -6 -5z"/>
<path d="M10227 2429 c7 -7 15 -10 18 -7 3 3 -2 9 -12 12 -14 6 -15 5 -6 -5z"/>
<path d="M8328 2423 c7 -3 16 -2 19 1 4 3 -2 6 -13 5 -11 0 -14 -3 -6 -6z"/>
<path d="M8178 2403 c7 -3 16 -2 19 1 4 3 -2 6 -13 5 -11 0 -14 -3 -6 -6z"/>
<path d="M8178 2333 c7 -3 16 -2 19 1 4 3 -2 6 -13 5 -11 0 -14 -3 -6 -6z"/>
<path d="M8961 2324 c0 -11 3 -14 6 -6 3 7 2 16 -1 19 -3 4 -6 -2 -5 -13z"/>
<path d="M8981 2324 c0 -11 3 -14 6 -6 3 7 2 16 -1 19 -3 4 -6 -2 -5 -13z"/>
<path d="M9831 2324 c0 -11 3 -14 6 -6 3 7 2 16 -1 19 -3 4 -6 -2 -5 -13z"/>
<path d="M9851 2324 c0 -11 3 -14 6 -6 3 7 2 16 -1 19 -3 4 -6 -2 -5 -13z"/>
<path d="M9918 2333 c7 -3 12 -24 12 -53 0 -29 -5 -50 -12 -53 -8 -3 -6 -6 5
-6 14 -1 17 8 17 59 0 51 -3 60 -17 59 -11 0 -13 -3 -5 -6z"/>
<path d="M8325 2300 c-3 -6 1 -7 9 -4 18 7 21 14 7 14 -6 0 -13 -4 -16 -10z"/>
<path d="M8406 2297 c3 -10 9 -15 12 -12 3 3 0 11 -7 18 -10 9 -11 8 -5 -6z"/>
<path d="M8560 2306 c0 -2 9 -6 20 -9 11 -3 18 -1 14 4 -5 9 -34 13 -34 5z"/>
<path d="M9758 2303 c7 -3 16 -2 19 1 4 3 -2 6 -13 5 -11 0 -14 -3 -6 -6z"/>
<path d="M8231 2284 c0 -11 3 -14 6 -6 3 7 2 16 -1 19 -3 4 -6 -2 -5 -13z"/>
<path d="M9043 2283 c9 -2 23 -2 30 0 6 3 -1 5 -18 5 -16 0 -22 -2 -12 -5z"/>
<path d="M9341 2274 c0 -11 3 -14 6 -6 3 7 2 16 -1 19 -3 4 -6 -2 -5 -13z"/>
<path d="M9391 2274 c0 -11 3 -14 6 -6 3 7 2 16 -1 19 -3 4 -6 -2 -5 -13z"/>
<path d="M9580 2274 c0 -8 5 -12 10 -9 6 4 8 11 5 16 -9 14 -15 11 -15 -7z"/>
<path d="M9500 2275 c0 -5 5 -17 10 -25 5 -8 10 -10 10 -5 0 6 -5 17 -10 25
-5 8 -10 11 -10 5z"/>
<path d="M8550 2261 c0 -10 19 -25 25 -20 1 2 -3 10 -11 17 -8 7 -14 8 -14 3z"/>
<path d="M8248 2248 c5 -5 16 -8 23 -6 8 3 3 7 -10 11 -17 4 -21 3 -13 -5z"/>
<path d="M8327 2249 c7 -7 15 -10 18 -7 3 3 -2 9 -12 12 -14 6 -15 5 -6 -5z"/>
<path d="M9687 2249 c7 -7 15 -10 18 -7 3 3 -2 9 -12 12 -14 6 -15 5 -6 -5z"/>
<path d="M8178 2223 c7 -3 16 -2 19 1 4 3 -2 6 -13 5 -11 0 -14 -3 -6 -6z"/>
<path d="M8178 2143 c7 -3 16 -2 19 1 4 3 -2 6 -13 5 -11 0 -14 -3 -6 -6z"/>
<path d="M8881 2134 c0 -11 3 -14 6 -6 3 7 2 16 -1 19 -3 4 -6 -2 -5 -13z"/>
<path d="M8901 2134 c0 -11 3 -14 6 -6 3 7 2 16 -1 19 -3 4 -6 -2 -5 -13z"/>
<path d="M10071 2134 c0 -11 3 -14 6 -6 3 7 2 16 -1 19 -3 4 -6 -2 -5 -13z"/>
<path d="M10158 2143 c7 -3 16 -2 19 1 4 3 -2 6 -13 5 -11 0 -14 -3 -6 -6z"/>
<path d="M8326 2107 c3 -10 9 -15 12 -12 3 3 0 11 -7 18 -10 9 -11 8 -5 -6z"/>
<path d="M9318 2113 c6 -2 18 -2 25 0 6 3 1 5 -13 5 -14 0 -19 -2 -12 -5z"/>
<path d="M9868 2113 c6 -2 18 -2 25 0 6 3 1 5 -13 5 -14 0 -19 -2 -12 -5z"/>
<path d="M9962 2090 c0 -19 2 -27 5 -17 2 9 2 25 0 35 -3 9 -5 1 -5 -18z"/>
<path d="M8231 2094 c0 -11 3 -14 6 -6 3 7 2 16 -1 19 -3 4 -6 -2 -5 -13z"/>
<path d="M9172 2085 c0 -16 2 -22 5 -12 2 9 2 23 0 30 -3 6 -5 -1 -5 -18z"/>
<path d="M9027 2089 c7 -7 15 -10 18 -7 3 3 -2 9 -12 12 -14 6 -15 5 -6 -5z"/>
<path d="M9882 2080 c0 -14 2 -19 5 -12 2 6 2 18 0 25 -3 6 -5 1 -5 -13z"/>
<path d="M8585 2070 c10 -11 20 -20 23 -20 3 0 -3 9 -13 20 -10 11 -20 20 -23
20 -3 0 3 -9 13 -20z"/>
<path d="M9715 2070 c10 -11 20 -20 23 -20 3 0 -3 9 -13 20 -10 11 -20 20 -23
20 -3 0 3 -9 13 -20z"/>
<path d="M8248 2058 c5 -5 16 -8 23 -6 8 3 3 7 -10 11 -17 4 -21 3 -13 -5z"/>
<path d="M9997 2059 c7 -7 15 -10 18 -7 3 3 -2 9 -12 12 -14 6 -15 5 -6 -5z"/>
<path d="M8328 2053 c7 -3 16 -2 19 1 4 3 -2 6 -13 5 -11 0 -14 -3 -6 -6z"/>
<path d="M5615 1955 c-233 -285 -459 -726 -570 -1115 -54 -191 -57 -172 33
-213 307 -140 665 -157 994 -47 67 23 198 80 215 94 4 3 -57 237 -89 341 -66
217 -204 536 -315 730 -60 106 -183 295 -192 295 -3 0 -38 -38 -76 -85z"/>
<path d="M8178 2033 c7 -3 16 -2 19 1 4 3 -2 6 -13 5 -11 0 -14 -3 -6 -6z"/>
<path d="M10158 2033 c7 -3 16 -2 19 1 4 3 -2 6 -13 5 -11 0 -14 -3 -6 -6z"/>
<path d="M8178 1963 c7 -3 16 -2 19 1 4 3 -2 6 -13 5 -11 0 -14 -3 -6 -6z"/>
<path d="M9427 1962 c6 -4 13 -25 15 -46 2 -22 9 -41 16 -42 7 -1 8 0 2 3 -5
2 -10 25 -10 49 0 35 -3 44 -17 44 -12 0 -14 -3 -6 -8z"/>
<path d="M8241 1913 c0 -27 3 -41 6 -33 3 8 11 18 17 22 8 5 7 8 -1 8 -7 0
-13 9 -13 19 0 11 6 22 13 24 7 3 5 6 -5 6 -15 1 -18 -7 -17 -46z"/>
<path d="M9943 1915 c0 -27 2 -38 4 -22 2 15 2 37 0 50 -2 12 -4 0 -4 -28z"/>
<path d="M8325 1930 c-3 -6 1 -7 9 -4 18 7 21 14 7 14 -6 0 -13 -4 -16 -10z"/>
<path d="M8406 1927 c3 -10 9 -15 12 -12 3 3 0 11 -7 18 -10 9 -11 8 -5 -6z"/>
<path d="M8488 1933 c7 -3 16 -2 19 1 4 3 -2 6 -13 5 -11 0 -14 -3 -6 -6z"/>
<path d="M8875 1929 c-4 -6 -4 -13 -1 -16 3 -4 6 -1 6 5 0 6 8 13 18 15 15 4
15 5 0 6 -9 0 -20 -4 -23 -10z"/>
<path d="M8970 1936 c0 -2 7 -7 16 -10 8 -3 12 -2 9 4 -6 10 -25 14 -25 6z"/>
<path d="M9510 1936 c0 -2 9 -6 20 -9 11 -3 18 -1 14 4 -5 9 -34 13 -34 5z"/>
<path d="M9905 1930 c-3 -6 1 -7 9 -4 18 7 21 14 7 14 -6 0 -13 -4 -16 -10z"/>
<path d="M9712 1900 c0 -19 2 -27 5 -17 2 9 2 25 0 35 -3 9 -5 1 -5 -18z"/>
<path d="M9822 1900 c0 -19 2 -27 5 -17 2 9 2 25 0 35 -3 9 -5 1 -5 -18z"/>
<path d="M9862 1900 c0 -19 2 -27 5 -17 2 9 2 25 0 35 -3 9 -5 1 -5 -18z"/>
<path d="M8361 1904 c0 -11 3 -14 6 -6 3 7 2 16 -1 19 -3 4 -6 -2 -5 -13z"/>
<path d="M8790 1904 c0 -8 5 -12 10 -9 6 4 8 11 5 16 -9 14 -15 11 -15 -7z"/>
<path d="M8906 1897 c3 -10 9 -15 12 -12 3 3 0 11 -7 18 -10 9 -11 8 -5 -6z"/>
<path d="M9500 1891 c0 -10 19 -25 25 -20 1 2 -3 10 -11 17 -8 7 -14 8 -14 3z"/>
<path d="M8327 1879 c7 -7 15 -10 18 -7 3 3 -2 9 -12 12 -14 6 -15 5 -6 -5z"/>
<path d="M8497 1879 c7 -7 15 -10 18 -7 3 3 -2 9 -12 12 -14 6 -15 5 -6 -5z"/>
<path d="M8648 1873 c7 -3 16 -2 19 1 4 3 -2 6 -13 5 -11 0 -14 -3 -6 -6z"/>
<path d="M8178 1853 c7 -3 16 -2 19 1 4 3 -2 6 -13 5 -11 0 -14 -3 -6 -6z"/>
<path d="M8648 1843 c7 -3 16 -2 19 1 4 3 -2 6 -13 5 -11 0 -14 -3 -6 -6z"/>
<path d="M8178 1773 c7 -3 16 -2 19 1 4 3 -2 6 -13 5 -11 0 -14 -3 -6 -6z"/>
<path d="M9041 1764 c0 -11 3 -14 6 -6 3 7 2 16 -1 19 -3 4 -6 -2 -5 -13z"/>
<path d="M9061 1764 c0 -11 3 -14 6 -6 3 7 2 16 -1 19 -3 4 -6 -2 -5 -13z"/>
<path d="M9911 1764 c0 -11 3 -14 6 -6 3 7 2 16 -1 19 -3 4 -6 -2 -5 -13z"/>
<path d="M9931 1764 c0 -11 3 -14 6 -6 3 7 2 16 -1 19 -3 4 -6 -2 -5 -13z"/>
<path d="M9998 1773 c7 -3 12 -24 12 -53 0 -29 -5 -50 -12 -53 -8 -3 -6 -6 5
-6 14 -1 17 8 17 59 0 51 -3 60 -17 59 -11 0 -13 -3 -5 -6z"/>
<path d="M9150 1751 c0 -12 -8 -21 -22 -24 -23 -4 -23 -4 -1 -6 14 -1 23 -9
26 -23 2 -13 5 -2 6 25 0 26 -1 47 -4 47 -3 0 -5 -9 -5 -19z"/>
<path d="M8400 1746 c0 -2 9 -6 20 -9 11 -3 18 -1 14 4 -5 9 -34 13 -34 5z"/>
<path d="M8568 1743 c7 -3 16 -2 19 1 4 3 -2 6 -13 5 -11 0 -14 -3 -6 -6z"/>
<path d="M9195 1740 c-3 -6 1 -7 9 -4 18 7 21 14 7 14 -6 0 -13 -4 -16 -10z"/>
<path d="M9350 1746 c0 -2 9 -6 20 -9 11 -3 18 -1 14 4 -5 9 -34 13 -34 5z"/>
<path d="M8362 1720 c0 -14 2 -19 5 -12 2 6 2 18 0 25 -3 6 -5 1 -5 -13z"/>
<path d="M8260 1726 c0 -2 7 -7 16 -10 8 -3 12 -2 9 4 -6 10 -25 14 -25 6z"/>
<path d="M9231 1714 c0 -11 3 -14 6 -6 3 7 2 16 -1 19 -3 4 -6 -2 -5 -13z"/>
<path d="M9742 1710 c0 -14 2 -19 5 -12 2 6 2 18 0 25 -3 6 -5 1 -5 -13z"/>
<path d="M8665 1708 c4 -11 0 -18 -12 -21 -15 -4 -16 -5 -1 -6 22 -1 33 18 19
32 -9 9 -11 8 -6 -5z"/>
<path d="M8390 1701 c0 -10 19 -25 25 -20 1 2 -3 10 -11 17 -8 7 -14 8 -14 3z"/>
<path d="M9340 1701 c0 -10 19 -25 25 -20 1 2 -3 10 -11 17 -8 7 -14 8 -14 3z"/>
<path d="M9197 1689 c7 -7 15 -10 18 -7 3 3 -2 9 -12 12 -14 6 -15 5 -6 -5z"/>
<path d="M8568 1683 c6 -2 18 -2 25 0 6 3 1 5 -13 5 -14 0 -19 -2 -12 -5z"/>
<path d="M8178 1663 c7 -3 16 -2 19 1 4 3 -2 6 -13 5 -11 0 -14 -3 -6 -6z"/>
<path d="M9358 1613 c6 -2 18 -2 25 0 6 3 1 5 -13 5 -14 0 -19 -2 -12 -5z"/>
<path d="M9110 1600 l-25 -8 28 -1 c15 -1 27 4 27 9 0 6 -1 10 -2 9 -2 -1 -14
-5 -28 -9z"/>
<path d="M8178 1593 c7 -3 16 -2 19 1 4 3 -2 6 -13 5 -11 0 -14 -3 -6 -6z"/>
<path d="M8801 1584 c0 -11 3 -14 6 -6 3 7 2 16 -1 19 -3 4 -6 -2 -5 -13z"/>
<path d="M8968 1593 c6 -2 18 -2 25 0 6 3 1 5 -13 5 -14 0 -19 -2 -12 -5z"/>
<path d="M9361 1558 c0 -26 3 -49 7 -52 4 -2 6 12 4 32 -6 62 -10 69 -11 20z"/>
<path d="M9561 1584 c0 -11 3 -14 6 -6 3 7 2 16 -1 19 -3 4 -6 -2 -5 -13z"/>
<path d="M9648 1593 c7 -3 16 -2 19 1 4 3 -2 6 -13 5 -11 0 -14 -3 -6 -6z"/>
<path d="M8243 1583 c9 -2 25 -2 35 0 9 3 1 5 -18 5 -19 0 -27 -2 -17 -5z"/>
<path d="M8950 1576 c0 -2 7 -7 16 -10 8 -3 12 -2 9 4 -6 10 -25 14 -25 6z"/>
<path d="M9033 1573 c20 -5 23 -23 5 -23 -9 0 -10 -2 -2 -8 7 -4 14 -16 17
-27 2 -11 5 -1 6 23 1 38 -1 42 -21 41 -17 -1 -19 -2 -5 -6z"/>
<path d="M9097 1573 c-3 -5 5 -8 18 -8 13 0 21 3 18 8 -2 4 -10 7 -18 7 -8 0
-16 -3 -18 -7z"/>
<path d="M9238 1573 c7 -3 16 -2 19 1 4 3 -2 6 -13 5 -11 0 -14 -3 -6 -6z"/>
<path d="M9290 1576 c0 -2 9 -6 20 -9 11 -3 18 -1 14 4 -5 9 -34 13 -34 5z"/>
<path d="M8400 1566 c0 -2 9 -6 20 -9 11 -3 18 -1 14 4 -5 9 -34 13 -34 5z"/>
<path d="M8488 1563 c7 -3 16 -2 19 1 4 3 -2 6 -13 5 -11 0 -14 -3 -6 -6z"/>
<path d="M9470 1561 c0 -6 4 -13 10 -16 6 -3 7 1 4 9 -7 18 -14 21 -14 7z"/>
<path d="M8895 1550 c-16 -7 -17 -9 -3 -9 9 -1 19 -11 21 -23 3 -17 5 -14 6
10 0 17 0 32 -1 31 -2 0 -12 -4 -23 -9z"/>
<path d="M9425 1550 c-16 -7 -17 -9 -3 -9 9 -1 19 -11 21 -23 3 -17 5 -14 6
10 0 17 0 32 -1 31 -2 0 -12 -4 -23 -9z"/>
<path d="M9522 1530 c0 -19 2 -27 5 -17 2 9 2 25 0 35 -3 9 -5 1 -5 -18z"/>
<path d="M8390 1521 c0 -10 19 -25 25 -20 1 2 -3 10 -11 17 -8 7 -14 8 -14 3z"/>
<path d="M9471 1514 c0 -11 3 -14 6 -6 3 7 2 16 -1 19 -3 4 -6 -2 -5 -13z"/>
<path d="M8960 1510 c-9 -6 -10 -10 -3 -10 6 0 15 5 18 10 8 12 4 12 -15 0z"/>
<path d="M9190 1510 c-9 -6 -10 -10 -3 -10 6 0 15 5 18 10 8 12 4 12 -15 0z"/>
<path d="M9305 1510 c-16 -7 -17 -9 -3 -9 9 -1 20 4 23 9 7 11 7 11 -20 0z"/>
<path d="M8488 1503 c6 -2 18 -2 25 0 6 3 1 5 -13 5 -14 0 -19 -2 -12 -5z"/>
<path d="M8178 1483 c7 -3 16 -2 19 1 4 3 -2 6 -13 5 -11 0 -14 -3 -6 -6z"/>
<path d="M9648 1483 c7 -3 16 -2 19 1 4 3 -2 6 -13 5 -11 0 -14 -3 -6 -6z"/>
<path d="M8178 1403 c7 -3 16 -2 19 1 4 3 -2 6 -13 5 -11 0 -14 -3 -6 -6z"/>
<path d="M9041 1394 c0 -11 3 -14 6 -6 3 7 2 16 -1 19 -3 4 -6 -2 -5 -13z"/>
<path d="M9061 1394 c0 -11 3 -14 6 -6 3 7 2 16 -1 19 -3 4 -6 -2 -5 -13z"/>
<path d="M8243 1393 c9 -2 25 -2 35 0 9 3 1 5 -18 5 -19 0 -27 -2 -17 -5z"/>
<path d="M9107 1393 c-4 -3 -7 -18 -6 -32 1 -26 1 -25 10 3 9 31 7 41 -4 29z"/>
<path d="M9740 1355 c0 -36 3 -45 18 -44 10 0 12 3 5 6 -7 2 -13 20 -13 38 0
18 6 36 13 38 7 3 5 6 -5 6 -15 1 -18 -8 -18 -44z"/>
<path d="M8406 1367 c3 -10 9 -15 12 -12 3 3 0 11 -7 18 -10 9 -11 8 -5 -6z"/>
<path d="M8568 1373 c7 -3 16 -2 19 1 4 3 -2 6 -13 5 -11 0 -14 -3 -6 -6z"/>
<path d="M9195 1370 c-3 -6 1 -7 9 -4 18 7 21 14 7 14 -6 0 -13 -4 -16 -10z"/>
<path d="M9276 1367 c3 -10 9 -15 12 -12 3 3 0 11 -7 18 -10 9 -11 8 -5 -6z"/>
<path d="M9430 1376 c0 -2 9 -6 20 -9 11 -3 18 -1 14 4 -5 9 -34 13 -34 5z"/>
<path d="M9602 1374 c9 -3 19 -16 21 -30 4 -21 4 -21 3 3 -1 20 -7 28 -21 30
-14 1 -15 0 -3 -3z"/>
<path d="M9820 1351 c0 -17 4 -32 8 -35 4 -2 6 11 4 30 -5 42 -12 45 -12 5z"/>
<path d="M9862 1350 c0 -19 2 -27 5 -17 2 9 2 25 0 35 -3 9 -5 1 -5 -18z"/>
<path d="M9791 1354 c0 -11 3 -14 6 -6 3 7 2 16 -1 19 -3 4 -6 -2 -5 -13z"/>
<path d="M9902 1340 c0 -19 2 -27 5 -17 2 9 2 25 0 35 -3 9 -5 1 -5 -18z"/>
<path d="M9942 1340 c0 -19 2 -27 5 -17 2 9 2 25 0 35 -3 9 -5 1 -5 -18z"/>
<path d="M9551 1344 c0 -11 3 -14 6 -6 3 7 2 16 -1 19 -3 4 -6 -2 -5 -13z"/>
<path d="M8505 1330 c10 -11 20 -20 23 -20 3 0 -3 9 -13 20 -10 11 -20 20 -23
20 -3 0 3 -9 13 -20z"/>
<path d="M8665 1338 c4 -11 0 -18 -12 -21 -15 -4 -16 -5 -1 -6 22 -1 33 18 19
32 -9 9 -11 8 -6 -5z"/>
<path d="M9420 1331 c0 -10 19 -25 25 -20 1 2 -3 10 -11 17 -8 7 -14 8 -14 3z"/>
<path d="M9580 1331 c0 -6 4 -13 10 -16 6 -3 7 1 4 9 -7 18 -14 21 -14 7z"/>
<path d="M9197 1319 c7 -7 15 -10 18 -7 3 3 -2 9 -12 12 -14 6 -15 5 -6 -5z"/>
<path d="M8568 1313 c6 -2 18 -2 25 0 6 3 1 5 -13 5 -14 0 -19 -2 -12 -5z"/>
<path d="M9278 1313 c7 -3 16 -2 19 1 4 3 -2 6 -13 5 -11 0 -14 -3 -6 -6z"/>
<path d="M8178 1293 c7 -3 16 -2 19 1 4 3 -2 6 -13 5 -11 0 -14 -3 -6 -6z"/>
<path d="M7783 1083 c-4 -10 -11 -21 -17 -25 -7 -5 -7 -8 2 -8 6 0 13 -12 13
-27 2 -28 2 -28 6 -3 3 14 10 28 17 32 8 6 8 8 -1 8 -7 0 -13 6 -13 14 0 8 6
17 13 19 9 4 9 6 -1 6 -7 1 -16 -7 -19 -16z"/>
<path d="M8557 1092 c6 -4 13 -25 15 -46 2 -22 9 -41 16 -42 7 -1 8 0 2 3 -5
2 -10 25 -10 49 0 35 -3 44 -17 44 -12 0 -14 -3 -6 -8z"/>
<path d="M7610 1055 c-6 -8 -10 -19 -8 -24 1 -6 8 1 15 14 13 28 11 31 -7 10z"/>
<path d="M7700 1066 c0 -2 7 -7 16 -10 8 -3 12 -2 9 4 -6 10 -25 14 -25 6z"/>
<path d="M7923 1035 c0 -22 2 -30 4 -17 2 12 2 30 0 40 -3 9 -5 -1 -4 -23z"/>
<path d="M7959 1032 c5 -34 6 -35 9 -8 2 16 0 32 -5 37 -5 5 -7 -7 -4 -29z"/>
<path d="M8020 1066 c0 -2 7 -7 16 -10 8 -3 12 -2 9 4 -6 10 -25 14 -25 6z"/>
<path d="M8730 1066 c0 -2 7 -7 16 -10 8 -3 12 -2 9 4 -6 10 -25 14 -25 6z"/>
<path d="M9040 1035 c0 -19 4 -35 8 -35 4 0 6 16 4 35 -2 19 -6 35 -8 35 -2 0
-4 -16 -4 -35z"/>
<path d="M9195 1060 c-3 -6 1 -7 9 -4 18 7 21 14 7 14 -6 0 -13 -4 -16 -10z"/>
<path d="M8001 1035 c0 -16 3 -25 7 -19 4 7 16 14 27 17 19 4 19 5 -2 6 -12 0
-24 7 -26 14 -3 6 -6 -1 -6 -18z"/>
<path d="M8152 1030 c0 -19 2 -27 5 -17 2 9 2 25 0 35 -3 9 -5 1 -5 -18z"/>
<path d="M7680 1035 c0 -14 21 -35 35 -35 5 0 1 6 -10 12 -19 12 -18 13 10 18
l30 6 -32 5 c-21 4 -33 1 -33 -6z"/>
<path d="M8328 1043 c6 -2 18 -2 25 0 6 3 1 5 -13 5 -14 0 -19 -2 -12 -5z"/>
<path d="M8711 1034 c0 -11 3 -14 6 -6 3 7 2 16 -1 19 -3 4 -6 -2 -5 -13z"/>
<path d="M8808 1043 c6 -2 18 -2 25 0 6 3 1 5 -13 5 -14 0 -19 -2 -12 -5z"/>
<path d="M8657 1009 c7 -7 15 -10 18 -7 3 3 -2 9 -12 12 -14 6 -15 5 -6 -5z"/>
<path d="M8740 1010 c-9 -6 -10 -10 -3 -10 6 0 15 5 18 10 8 12 4 12 -15 0z"/>
<path d="M7858 1003 c6 -2 18 -2 25 0 6 3 1 5 -13 5 -14 0 -19 -2 -12 -5z"/>
<path d="M8337 890 c-8 -12 -11 -32 -8 -52 5 -32 6 -32 9 -5 2 15 9 27 15 27
7 0 6 4 -3 10 -13 9 -12 12 4 25 11 8 15 15 8 15 -6 0 -17 -9 -25 -20z"/>
<path d="M7760 855 c0 -27 2 -46 5 -43 8 8 9 77 2 85 -4 3 -7 -15 -7 -42z"/>
<path d="M8003 855 c0 -27 2 -38 4 -22 2 15 2 37 0 50 -2 12 -4 0 -4 -28z"/>
<path d="M7799 842 c5 -34 6 -35 9 -8 2 16 0 32 -5 37 -5 5 -7 -7 -4 -29z"/>
<path d="M7863 874 c18 -6 23 -20 8 -26 -5 -1 -2 -9 6 -17 13 -11 14 -9 11 15
-2 20 -9 29 -23 31 -16 1 -16 1 -2 -3z"/>
<path d="M7925 869 c-4 -6 -4 -13 -1 -16 3 -4 6 -1 6 5 0 6 8 13 18 15 15 4
15 5 0 6 -9 0 -20 -4 -23 -10z"/>
<path d="M8039 842 c5 -34 6 -35 9 -8 2 16 0 32 -5 37 -5 5 -7 -7 -4 -29z"/>
<path d="M8165 844 c0 -19 5 -34 10 -34 6 0 10 13 10 30 0 16 -4 32 -10 34 -5
2 -10 -12 -10 -30z"/>
<path d="M8245 870 c-3 -6 1 -7 9 -4 18 7 21 14 7 14 -6 0 -13 -4 -16 -10z"/>
<path d="M8488 873 c7 -3 16 -2 19 1 4 3 -2 6 -13 5 -11 0 -14 -3 -6 -6z"/>
<path d="M8566 867 c3 -10 9 -15 12 -12 3 3 0 11 -7 18 -10 9 -11 8 -5 -6z"/>
<path d="M8652 874 c9 -3 19 -16 21 -30 4 -21 4 -21 3 3 -1 20 -7 28 -21 30
-14 1 -15 0 -3 -3z"/>
<path d="M9038 873 c6 -2 18 -2 25 0 6 3 1 5 -13 5 -14 0 -19 -2 -12 -5z"/>
<path d="M9128 854 c3 -16 -1 -30 -9 -35 -10 -6 -5 -9 16 -8 17 0 24 3 18 6
-7 2 -13 18 -13 34 0 16 -4 29 -9 29 -4 0 -6 -12 -3 -26z"/>
<path d="M9195 870 c-3 -6 1 -7 9 -4 18 7 21 14 7 14 -6 0 -13 -4 -16 -10z"/>
<path d="M8280 861 c0 -5 -10 -12 -22 -14 -20 -4 -19 -4 5 -6 18 -1 27 4 27
14 0 8 -2 15 -5 15 -3 0 -5 -4 -5 -9z"/>
<path d="M9902 840 c0 -19 2 -27 5 -17 2 9 2 25 0 35 -3 9 -5 1 -5 -18z"/>
<path d="M9942 840 c0 -19 2 -27 5 -17 2 9 2 25 0 35 -3 9 -5 1 -5 -18z"/>
<path d="M8098 853 c6 -2 18 -2 25 0 6 3 1 5 -13 5 -14 0 -19 -2 -12 -5z"/>
<path d="M9231 844 c0 -11 3 -14 6 -6 3 7 2 16 -1 19 -3 4 -6 -2 -5 -13z"/>
<path d="M9678 853 c6 -2 18 -2 25 0 6 3 1 5 -13 5 -14 0 -19 -2 -12 -5z"/>
<path d="M7950 843 c15 -7 12 -21 -5 -26 -11 -4 -10 -4 2 -3 21 2 25 28 5 32
-7 1 -8 0 -2 -3z"/>
<path d="M8825 838 c4 -11 0 -18 -12 -21 -15 -4 -16 -5 -1 -6 22 -1 33 18 19
32 -9 9 -11 8 -6 -5z"/>
<path d="M7840 831 c0 -10 19 -25 25 -20 1 2 -3 10 -11 17 -8 7 -14 8 -14 3z"/>
<path d="M8630 831 c0 -6 4 -13 10 -16 6 -3 7 1 4 9 -7 18 -14 21 -14 7z"/>
<path d="M8248 818 c5 -5 16 -8 23 -6 8 3 3 7 -10 11 -17 4 -21 3 -13 -5z"/>
<path d="M8497 819 c7 -7 15 -10 18 -7 3 3 -2 9 -12 12 -14 6 -15 5 -6 -5z"/>
<path d="M9197 819 c7 -7 15 -10 18 -7 3 3 -2 9 -12 12 -14 6 -15 5 -6 -5z"/>
<path d="M9767 819 c7 -7 15 -10 18 -7 3 3 -2 9 -12 12 -14 6 -15 5 -6 -5z"/>
<path d="M9988 818 c5 -5 16 -8 23 -6 8 3 3 7 -10 11 -17 4 -21 3 -13 -5z"/>
<path d="M10243 814 c21 -7 22 -21 2 -27 -11 -4 -10 -4 2 -3 25 2 23 30 -2 33
-16 1 -16 1 -2 -3z"/>
<path d="M9998 783 c7 -3 16 -2 19 1 4 3 -2 6 -13 5 -11 0 -14 -3 -6 -6z"/>
<path d="M9115 690 c-3 -6 1 -7 9 -4 18 7 21 14 7 14 -6 0 -13 -4 -16 -10z"/>
<path d="M9196 687 c3 -10 9 -15 12 -12 3 3 0 11 -7 18 -10 9 -11 8 -5 -6z"/>
<path d="M9621 674 c0 -11 3 -14 6 -6 3 7 2 16 -1 19 -3 4 -6 -2 -5 -13z"/>
<path d="M8630 664 c0 -8 5 -12 10 -9 6 4 8 11 5 16 -9 14 -15 11 -15 -7z"/>
<path d="M9151 664 c0 -11 3 -14 6 -6 3 7 2 16 -1 19 -3 4 -6 -2 -5 -13z"/>
<path d="M9341 664 c0 -11 3 -14 6 -6 3 7 2 16 -1 19 -3 4 -6 -2 -5 -13z"/>
<path d="M8737 639 c7 -7 15 -10 18 -7 3 3 -2 9 -12 12 -14 6 -15 5 -6 -5z"/>
<path d="M8817 639 c7 -7 15 -10 18 -7 3 3 -2 9 -12 12 -14 6 -15 5 -6 -5z"/>
<path d="M9117 639 c7 -7 15 -10 18 -7 3 3 -2 9 -12 12 -14 6 -15 5 -6 -5z"/>
<path d="M9198 633 c7 -3 16 -2 19 1 4 3 -2 6 -13 5 -11 0 -14 -3 -6 -6z"/>
<path d="M8641 394 c0 -11 3 -14 6 -6 3 7 2 16 -1 19 -3 4 -6 -2 -5 -13z"/>
<path d="M8243 355 c0 -27 2 -38 4 -22 2 15 2 37 0 50 -2 12 -4 0 -4 -28z"/>
<path d="M9033 355 c0 -27 2 -38 4 -22 2 15 2 37 0 50 -2 12 -4 0 -4 -28z"/>
<path d="M9863 355 c0 -27 2 -38 4 -22 2 15 2 37 0 50 -2 12 -4 0 -4 -28z"/>
<path d="M7603 345 c0 -22 2 -30 4 -17 2 12 2 30 0 40 -3 9 -5 -1 -4 -23z"/>
<path d="M7645 370 c3 -5 8 -10 11 -10 2 0 4 5 4 10 0 6 -5 10 -11 10 -5 0 -7
-4 -4 -10z"/>
<path d="M7700 376 c0 -2 7 -7 16 -10 8 -3 12 -2 9 4 -6 10 -25 14 -25 6z"/>
<path d="M7943 374 c23 -7 22 -20 -4 -27 -22 -6 -22 -29 -1 -33 7 -1 8 0 2 3
-5 2 -10 9 -10 14 0 14 28 11 34 -3 3 -7 4 0 3 17 -1 22 -7 30 -22 32 -16 1
-16 1 -2 -3z"/>
<path d="M8005 368 c-10 -28 2 -53 26 -55 l24 -1 -24 5 c-19 4 -21 7 -10 14
10 6 10 9 2 9 -7 0 -13 7 -13 15 0 21 27 19 34 -2 4 -14 4 -14 3 2 -3 23 -35
33 -42 13z"/>
<path d="M8100 376 c0 -2 7 -7 16 -10 8 -3 12 -2 9 4 -6 10 -25 14 -25 6z"/>
<path d="M8270 373 c5 -2 10 -15 10 -28 0 -13 -5 -26 -10 -28 -6 -3 -5 -4 2
-3 7 2 13 15 13 31 0 16 -6 29 -13 31 -7 1 -8 0 -2 -3z"/>
<path d="M8325 370 c-3 -6 1 -7 9 -4 18 7 21 14 7 14 -6 0 -13 -4 -16 -10z"/>
<path d="M8404 367 c3 -10 6 -21 6 -23 0 -11 19 -2 24 12 4 9 2 13 -5 8 -6 -4
-16 0 -21 7 -8 11 -8 10 -4 -4z"/>
<path d="M9069 342 c5 -34 6 -35 9 -8 2 16 0 32 -5 37 -5 5 -7 -7 -4 -29z"/>
<path d="M9115 370 c-3 -6 1 -7 9 -4 18 7 21 14 7 14 -6 0 -13 -4 -16 -10z"/>
<path d="M9600 376 c0 -2 7 -7 16 -10 8 -3 12 -2 9 4 -6 10 -25 14 -25 6z"/>
<path d="M9825 370 c-3 -6 1 -7 9 -4 18 7 21 14 7 14 -6 0 -13 -4 -16 -10z"/>
<path d="M8081 345 c0 -16 3 -25 7 -19 4 7 16 14 27 17 19 4 19 5 -2 6 -12 0
-24 7 -26 14 -3 6 -6 -1 -6 -18z"/>
<path d="M8362 345 c0 -16 2 -22 5 -12 2 9 2 23 0 30 -3 6 -5 -1 -5 -18z"/>
<path d="M8842 340 c0 -19 2 -27 5 -17 2 9 2 25 0 35 -3 9 -5 1 -5 -18z"/>
<path d="M7680 345 c0 -14 21 -35 35 -35 5 0 1 6 -10 12 -19 12 -18 13 10 18
l30 6 -32 5 c-21 4 -33 1 -33 -6z"/>
<path d="M7783 347 c21 -17 21 -24 2 -30 -12 -4 -11 -5 1 -3 27 2 28 23 2 36
-21 10 -21 10 -5 -3z"/>
<path d="M7863 347 c21 -17 21 -24 2 -30 -12 -4 -11 -5 1 -3 27 2 28 23 2 36
-21 10 -21 10 -5 -3z"/>
<path d="M8168 353 c6 -2 18 -2 25 0 6 3 1 5 -13 5 -14 0 -19 -2 -12 -5z"/>
<path d="M8968 353 c7 -3 16 -2 19 1 4 3 -2 6 -13 5 -11 0 -14 -3 -6 -6z"/>
<path d="M9341 344 c0 -11 3 -14 6 -6 3 7 2 16 -1 19 -3 4 -6 -2 -5 -13z"/>
<path d="M9391 344 c0 -11 3 -14 6 -6 3 7 2 16 -1 19 -3 4 -6 -2 -5 -13z"/>
<path d="M9438 353 c6 -2 18 -2 25 0 6 3 1 5 -13 5 -14 0 -19 -2 -12 -5z"/>
<path d="M9581 344 c0 -11 3 -14 6 -6 3 7 2 16 -1 19 -3 4 -6 -2 -5 -13z"/>
<path d="M8327 319 c7 -7 15 -10 18 -7 3 3 -2 9 -12 12 -14 6 -15 5 -6 -5z"/>
<path d="M9117 319 c7 -7 15 -10 18 -7 3 3 -2 9 -12 12 -14 6 -15 5 -6 -5z"/>
<path d="M9610 320 c-9 -6 -10 -10 -3 -10 6 0 15 5 18 10 8 12 4 12 -15 0z"/>
<path d="M9767 319 c7 -7 15 -10 18 -7 3 3 -2 9 -12 12 -14 6 -15 5 -6 -5z"/>
<path d="M8018 283 c7 -3 16 -2 19 1 4 3 -2 6 -13 5 -11 0 -14 -3 -6 -6z"/>
</g>
</svg>
